<?xml version="1.0" encoding="utf-8"?><!-- Uploaded to: SVG Repo, www.svgrepo.com, Generator: SVG Repo Mixer Tools -->
<svg width="800px" height="800px" viewBox="0 0 24 24" fill="none" xmlns="http://www.w3.org/2000/svg">
<defs>
    <linearGradient id="grad1" x1="0%" y1="0%" x2="100%" y2="0%">
      <stop offset="0%" style="stop-color:#2563EB; stop-opacity:1" /> <!-- blue-600 -->
      <stop offset="100%" style="stop-color:#DC2626; stop-opacity:1" /> <!-- red-600 -->
    </linearGradient>
  </defs>
<path d="M3 11C3 7.22876 3 5.34315 4.17157 4.17157C5.34315 3 7.22876 3 11 3H13C16.7712 3 18.6569 3 19.8284 4.17157C21 5.34315 21 7.22876 21 11V13C21 16.7712 21 18.6569 19.8284 19.8284C18.6569 21 16.7712 21 13 21H11C7.22876 21 5.34315 21 4.17157 19.8284C3 18.6569 3 16.7712 3 13V11Z" stroke="url(#grad1)" stroke-width="2"/>
<circle cx="16.5" cy="7.5" r="1.5" fill="url(#grad1)"/>
<circle cx="12" cy="12" r="3" stroke="url(#grad1)" stroke-width="2"/>
</svg>