<?xml version="1.0" encoding="UTF-8"?><svg xmlns="http://www.w3.org/2000/svg" viewBox="0 0 708.4 798.78"><defs><style>.d{fill:#c7c6c6;}.e{fill:#373937;}.f{fill:#131313;opacity:.1;}.g{fill:#cecdce;}.h{fill:#a1a0a0;}.i{fill:#9a9999;}.j{fill:#fee07e;}.k{fill:#5a5d5b;}.l{fill:#83bd49;}</style></defs><g id="a"/><g id="b"><g id="c"><g><g><g><path class="k" d="M0,530.87l4.87-31.57-.97-10.88-3.18-35.62,10.29-50-6.21-62.44,10.14-58.31c28.59-48.76,46.82-70.83,56.07-80.27h93.01c-.52,41.11,1.8,26.01-.52,41.11-2.09,13.57,0,17.74-1.56,34.6l14.73,58.46-8.08,67.42,13.54,64.35-4.12,36.84,7.03,27.99-185.03-1.69Z"/><path class="e" d="M185.03,532.56l-138.85-1.27,38.01-35.91,60.36-10.5-5.01-24.42,21.47-1.36-18.41-40.22,7.48-34.8-36.29,18.23,26.27-47.56,19.83-15.96-28.43-21.8,25.33-30.7-14.96-41.22c5.23,8.71,11.3,18.72,20.11,32.44l14.73,58.46-8.08,67.42,13.54,64.35-4.12,36.84,7.03,27.99Z"/><path class="e" d="M40.38,255.36l-9.65,28.97,12.46,27.89-15.93-13.71-10.24,38.34,6.25,40.34,16.66,32.69-10.45,11.77-21.19,48.97-4.4,17.79-3.18-35.62,10.29-50-6.21-62.44,10.14-58.31c28.59-48.76,42.34-66,51.58-75.44l3.13-12,8.14,7.24,.76,2.67-24.94,50.96-13.22-.12Z"/></g><circle class="e" cx="201.72" cy="748.35" r="50.43"/><circle class="e" cx="631.19" cy="747.41" r="50.43"/><path class="k" d="M270.77,606.64c25.62,0,51.23,0,76.85,0,36.98,.01,73.95,.03,110.92,.04,15.18-.02,30.36-.04,45.54-.06,49.61,0,99.21,.01,148.81,.02,12.23,.09,24.46,.21,36.69,.25,14.8,.06,18.71,3.85,18.71,18.39,0,2.54-.14,5.09-.21,7.63l-557.03-.03c-.84-24.18,.86-25.96,24.57-26,4.57,0,9.14-.24,13.71-.37,8.27,.04,16.54,.09,24.81,.13,18.88,0,37.76,0,56.64,0Z"/><path class="e" d="M151.04,632.88l557.03,.03c1.39,22.35-.88,24.79-22.91,24.82-13.19,.02-26.38,.14-39.57,.22-8.89,0-17.79,0-26.68-.01-3.06-.07-6.12-.2-9.19-.2-128.49-.01-256.99-.01-385.48,0-3.31,0-6.63,.19-9.94,.29-8.87-.02-17.74-.05-26.61-.07-7.12-.08-14.24-.12-21.35-.25-11.39-.21-15.45-4.24-15.71-15.73-.07-3.03,.26-6.07,.4-9.11Z"/><path class="g" d="M214.2,251.97c-8.32-.05-16.63-.09-24.95-.14,.03-48.02,.07-96.05,.08-144.07,0-23.68-9.79-33.42-33.5-33.43-2.55,0-5.11-.01-7.66-.02,.82-4.09,1.63-8.17,2.45-12.26l-2.65-12.31c10.12,.69,20.71-.27,30.27,2.41,22.28,6.24,35.73,25.56,35.78,48.75,.12,50.35,.13,100.71,.19,151.06Z"/><path class="h" d="M213.91,683.53c-8.22,.03-16.43,.05-24.65,.08-.52-8.55-1.04-17.09-1.56-25.64,8.87,.02,17.74,.05,26.61,.07-.13,8.5-.26,17-.4,25.49Z"/><path class="h" d="M644.95,683.46c-8.44,0-16.88,0-25.31-.01-.24-8.5-.48-17-.72-25.51,8.89,0,17.79,0,26.68,.01-.22,8.5-.43,17-.65,25.51Z"/><path class="j" d="M150.87,279.9c-.14-.36-.31-.71-.39-1.08-.01-.06,.36-.2,.56-.3,.08,.48,.02,.93-.16,1.38Z"/><circle class="k" cx="632.69" cy="745.55" r="32.11"/><path class="g" d="M619.21,718.84c0-7.05-.02-14.1-.03-21.15,.15-4.75,.3-9.49,.45-14.24,8.44,0,16.87,0,25.31,.01,.13,4.74,.26,9.49,.39,14.23,.01,7.06,.02,14.11,.04,21.17-.08,8.38-.04,16.75-.26,25.13-.24,9.34-5.09,14.85-12.81,14.85-7.66,0-12.58-5.55-12.83-14.87-.23-8.37-.19-16.75-.27-25.13Z"/><circle class="k" cx="201.01" cy="745.71" r="32.11"/><path class="g" d="M214.09,697.71c.05,7.06,.11,14.12,.16,21.18-.07,8.68-.03,17.37-.25,26.04-.23,8.81-5.24,14.06-12.93,13.89-7.26-.16-11.75-5.21-12.05-13.88-.29-8.66-.38-17.33-.56-26,.32-7.05,.63-14.1,.95-21.15-.05-4.73-.1-9.46-.14-14.19,8.22-.03,16.43-.05,24.65-.08,.06,4.73,.12,9.45,.18,14.18Z"/><rect class="g" x="188.57" y="214.26" width="25.74" height="392.4"/><rect class="e" x="24.12" y="190.8" width="447.44" height="24.37" rx="11.53" ry="11.53"/><rect class="l" x="233.12" y="215.17" width="217.33" height="391.34"/><rect class="k" x="80" y="49.75" width="81.39" height="24.37" rx="11.53" ry="11.53"/><g><path class="l" d="M267.86,62.86l20.07,77.52c.94,3.62-1.24,7.32-4.86,8.26l-30.19,7.81c-3.62,.94-7.32-1.24-8.26-4.86l-6.73-26c-2.16-8.34-1.12-17.18,2.91-24.78l7.71-14.54c4.29-8.09,5.57-17.44,3.63-26.39l-2.73-14.21c-.77-3.56,1.49-6.75,5.01-7.66h0c3.62-.94,7.41,1.58,8.35,5.21l5.09,19.65Z"/><path class="l" d="M254.99,22.68l-30.4,7.87c-2.53,.66-4.05,3.24-3.4,5.77h0c.54,2.08,2.41,3.53,4.56,3.55,5.06,.04,14.09,.72,18.36,4.8,1.2,1.15,2.89,1.62,4.5,1.2l15.52-4.02c2.4-.62,3.86-3,3.43-5.44-.21-1.17-.36-2.58-.37-4.21-.03-6.41-5.98-11.14-12.19-9.53Z"/><path class="l" d="M238.19,61.27c.19-.05,.36-.13,.53-.26,10.36-7.97,10.76-20.77,10.77-21.31,.02-.81-.63-1.48-1.44-1.5-.81-.01-1.48,.63-1.5,1.44,0,.2-.43,11.98-9.62,19.04-.64,.5-.76,1.42-.27,2.06,.37,.48,.98,.67,1.53,.53Z"/><rect class="l" x="237.83" y="110.77" width="44.73" height="23.51" transform="translate(542.8 175.93) rotate(165.49)"/></g><g><path class="l" d="M317.48,70.26l-16.3,78.4c-.76,3.66-4.35,6.02-8.01,5.26l-30.53-6.35c-3.66-.76-6.02-4.35-5.26-8.01l5.47-26.3c1.75-8.43,6.6-15.9,13.58-20.94l13.35-9.63c7.43-5.36,12.72-13.17,14.93-22.06l3.84-13.95c.88-3.53,4.32-5.4,7.88-4.66h0c3.66,.76,5.94,4.7,5.18,8.36l-4.13,19.87Z"/><path class="l" d="M323.72,28.54l-30.75-6.39c-2.56-.53-5.07,1.11-5.6,3.67h0c-.44,2.11,.6,4.23,2.52,5.2,4.52,2.27,12.32,6.88,14.34,12.43,.57,1.56,1.87,2.73,3.5,3.07l15.7,3.26c2.43,.5,4.79-.98,5.48-3.36,.33-1.14,.82-2.47,1.53-3.94,2.81-5.77-.44-12.63-6.72-13.94Z"/><path class="l" d="M291.59,55.71c.19,.04,.39,.04,.59,0,12.82-2.56,18.84-13.87,19.09-14.35,.37-.72,.09-1.61-.63-1.98-.72-.37-1.61-.09-1.98,.62-.09,.18-5.69,10.55-17.06,12.82-.8,.16-1.31,.93-1.15,1.73,.12,.6,.58,1.04,1.14,1.15Z"/><rect class="l" x="261.85" y="108.62" width="44.73" height="23.51" transform="translate(537.99 296.09) rotate(-168.26)"/></g></g><path class="i" d="M612.17,321.15c-1.95,0-3.84-1.01-4.89-2.82l-41.79-72.59v-57.16c0-3.11,2.52-5.63,5.63-5.63s5.63,2.52,5.63,5.63v54.14l40.3,69.98c1.55,2.69,.62,6.13-2.07,7.68-.89,.51-1.85,.75-2.8,.75Z"/><path class="g" d="M651.63,398.03h-83.16l-.47-37.03c-.09-6.75-5.66-12.14-12.41-12l-2.34,.05v-33.38c0-21.45,17.39-38.84,38.84-38.84h.98c32.35,0,58.57,26.22,58.57,58.57v62.64Z"/><path class="i" d="M583.29,383.03l-.29-22.22c-.12-10.32-6.11-19.31-14.75-23.79v-21.35c0-13.14,10.69-23.83,23.83-23.83h.98c24.02,0,43.56,19.54,43.56,43.56v47.63h-53.34Z"/><path class="i" d="M611.68,561.38c-.84-4.53-5.19-7.5-9.71-6.67l-47.28,8.77L460.29,6.93c-.77-4.54-5.06-7.58-9.6-6.82-4.53,.77-7.59,5.07-6.82,9.6l94.43,556.8-48.06,8.91c-4.52,.84-7.51,5.18-6.67,9.71,.37,2,1.43,3.69,2.87,4.89,1.84,1.52,4.31,2.24,6.84,1.78l111.72-20.72c4.52-.84,7.51-5.18,6.67-9.71Z"/><polygon class="e" points="463.02 606.6 643.18 606.6 668.54 389.86 463.02 389.86 463.02 606.6"/><rect class="k" x="459.02" y="389.86" width="213.53" height="15.89"/><path class="d" d="M661.62,506.52h-197.48c-2.29,0-4.15-3.71-4.15-8.29s1.86-8.29,4.15-8.29h197.48c2.29,0,4.15,3.71,4.15,8.29s-1.86,8.29-4.15,8.29Z"/><path class="i" d="M679.49,471.51l-112.23-57.88c-4.76-2.46-6.31-8.52-3.31-12.96l.32-.47c2.66-3.93,7.91-5.1,11.99-2.68l108.96,64.8-5.72,9.2Z"/><polygon class="i" points="328.4 190.45 235.63 190.45 222.57 78.84 328.4 78.84 328.4 190.45"/><polygon class="i" points="332.87 190.45 425.64 190.45 438.7 78.84 332.87 78.84 332.87 190.45"/><rect class="g" x="220.17" y="78.84" width="109.95" height="8.18"/><rect class="g" x="330.81" y="78.84" width="109.95" height="8.18"/><path class="g" d="M432.48,138.92H229.1c-2.36,0-4.27-1.91-4.27-4.27s1.91-4.27,4.27-4.27h203.38c2.36,0,4.27,1.91,4.27,4.27s-1.91,4.27-4.27,4.27Z"/><path class="l" d="M418.64,153.88c-1.15-1.31-2.38-2.54-3.69-3.69-3.54-3.23-6.92-6.15-7.84-11.08l-3.85,11.84c-.39,2.38-1.38,4.38-2.85,5.77-3.69,4-10.23,4.77-14.77,.77v-.08c-.08,0-.15-.08-.23-.15l-1.46-1.31c-1.46-1.38-3.08-2.85-5.08-3.15-.46-.08-1.08,.69-1.69,1.85-3.15,5.54-11,5.85-14.23,.38-1.15-1.92-2.31-3.77-3.62-5.46-3.15-4.15-6.69-7-10.69-6.54-1.38-20.84-3-34.84-4.38-55.69-.15-3.15-1.92-5.46-1-8.46,1.15-3.85,29.5,.14,33.52-.05,16.8-.79,44.37-2.23,44.83,0,0,0,3.49,30.35-2.97,75.04Z"/><path class="f" d="M384.95,154.42c.23,1,.39,2,.69,3-.08,0-.15-.08-.23-.15l-1.46-1.31c-1.46-1.38-3.08-2.85-5.08-3.15-.46-.08-1.08,.69-1.69,1.85-3.15,5.54-11,5.85-14.23,.38-1.15-1.92-2.31-3.77-3.62-5.46-.69-22-1.54-44.07-2.31-66.15,2.92,21.15,7.38,42,13.31,62.45,3.31-18.84,3.77-38.23,1.15-57.22,4.46,21.92,9,43.84,13.46,65.76Z"/><path class="f" d="M414.94,150.19c-3.54-3.23-6.92-6.15-7.84-11.08l-3.85,11.84c-.39,2.38-1.38,4.38-2.85,5.77,.69-35.76,3.36-35.97,.59-71.66,6.38,33.54,7.48,31.58,13.94,65.12Z"/><rect class="g" x="222.57" y="489.94" width="446.97" height="16.58" rx="8.29" ry="8.29"/><rect class="g" x="221.27" y="311.17" width="238.71" height="16.58" rx="8.29" ry="8.29"/><rect class="g" x="258.14" y="402.18" width="392.41" height="16.58" transform="translate(43.88 864.82) rotate(-90)"/></g></g></g></svg>