<?xml version="1.0" encoding="UTF-8"?>
<svg id="Layer_1" xmlns="http://www.w3.org/2000/svg" version="1.1" viewBox="0 0 708.4 798.8">
  <!-- Generator: Adobe Illustrator 29.0.0, SVG Export Plug-In . SVG Version: 2.1.0 Build 186)  -->
  <defs>
    <style>
      .st0 {
        fill: #c7c6c6;
      }

      .st1 {
        fill: #2e3192;
      }

      .st2 {
        fill: #fee07e;
      }

      .st3 {
        fill: #5a5d5b;
      }

      .st4 {
        fill: #131313;
        isolation: isolate;
        opacity: .1;
      }

      .st5 {
        fill: #ed1c24;
      }

      .st6 {
        fill: #353031;
      }

      .st7 {
        fill: #9a9999;
      }

      .st8 {
        fill: #cecdce;
      }

      .st9 {
        fill: #a1a0a0;
      }
    </style>
  </defs>
  <path class="st3" d="M0,530.9l4.9-31.6-1-10.9-3.2-35.6,10.3-50-6.2-62.4,10.1-58.3c28.6-48.8,46.8-70.8,56.1-80.3h93c-.5,41.1,1.8,26-.5,41.1-2.1,13.6,0,17.7-1.6,34.6l14.7,58.5-8.1,67.4,13.5,64.4-4.1,36.8,7,28L0,530.9h0Z"/>
  <path class="st6" d="M185,532.6l-138.9-1.3,38-35.9,60.4-10.5-5-24.4,21.5-1.4-18.4-40.2,7.5-34.8-36.3,18.2,26.3-47.6,19.8-16-28.4-21.8,25.3-30.7-15-41.2c5.2,8.7,11.3,18.7,20.1,32.4l14.7,58.5-8.1,67.4,13.5,64.4-4.1,36.8,7,28h0Z"/>
  <path class="st6" d="M40.4,255.4l-9.6,29,12.5,27.9-15.9-13.7-10.2,38.3,6.2,40.3,16.7,32.7-10.5,11.8-21.2,49-4.4,17.8-3.2-35.6,10.3-50-6.2-62.4,10.1-58.3c28.6-48.8,42.3-66,51.6-75.4l3.1-12,8.1,7.2.8,2.7-24.9,51h-13.2c0-.1,0-.1,0-.1Z"/>
  <circle class="st5" cx="201.7" cy="748.3" r="50.4"/>
  <circle class="st5" cx="631.2" cy="747.4" r="50.4"/>
  <path class="st3" d="M270.8,606.6h76.9c37,0,74,0,110.9,0,15.2,0,30.4,0,45.5,0,49.6,0,99.2,0,148.8,0,12.2,0,24.5.2,36.7.2,14.8,0,18.7,3.8,18.7,18.4s-.1,5.1-.2,7.6H151c-.8-24.2.9-26,24.6-26,4.6,0,9.1-.2,13.7-.4,8.3,0,16.5,0,24.8.1h56.6,0Z"/>
  <path class="st5" d="M151,632.9h557c1.4,22.4-.9,24.8-22.9,24.9-13.2,0-26.4.1-39.6.2-8.9,0-17.8,0-26.7,0-3.1,0-6.1-.2-9.2-.2-128.5,0-257,0-385.5,0-3.3,0-6.6.2-9.9.3-8.9,0-17.7,0-26.6,0-7.1,0-14.2-.1-21.4-.2-11.4-.2-15.4-4.2-15.7-15.7,0-3,.3-6.1.4-9.1h0Z"/>
  <path class="st8" d="M214.2,252c-8.3,0-16.6,0-24.9-.1,0-48,0-96.1,0-144.1,0-23.7-9.8-33.4-33.5-33.4-2.6,0-5.1,0-7.7,0,.8-4.1,1.6-8.2,2.4-12.3l-2.6-12.3c10.1.7,20.7-.3,30.3,2.4,22.3,6.2,35.7,25.6,35.8,48.8.1,50.4.1,100.7.2,151.1h0Z"/>
  <path class="st9" d="M213.9,683.5c-8.2,0-16.4,0-24.6,0-.5-8.5-1-17.1-1.6-25.6,8.9,0,17.7,0,26.6,0-.1,8.5-.3,17-.4,25.5h0Z"/>
  <path class="st9" d="M645,683.5c-8.4,0-16.9,0-25.3,0-.2-8.5-.5-17-.7-25.5,8.9,0,17.8,0,26.7,0-.2,8.5-.4,17-.7,25.5Z"/>
  <path class="st2" d="M150.9,279.9c-.1-.4-.3-.7-.4-1.1,0,0,.4-.2.6-.3,0,.5,0,.9-.2,1.4h0Z"/>
  <circle class="st3" cx="632.7" cy="745.5" r="32.1"/>
  <path class="st8" d="M619.2,718.8c0-7,0-14.1,0-21.2.2-4.8.3-9.5.5-14.2,8.4,0,16.9,0,25.3,0,.1,4.7.3,9.5.4,14.2,0,7.1,0,14.1,0,21.2,0,8.4,0,16.8-.3,25.1-.2,9.3-5.1,14.8-12.8,14.8s-12.6-5.5-12.8-14.9c-.2-8.4-.2-16.8-.3-25.1h0Z"/>
  <circle class="st3" cx="201" cy="745.7" r="32.1"/>
  <path class="st8" d="M214.1,697.7c0,7.1.1,14.1.2,21.2,0,8.7,0,17.4-.2,26-.2,8.8-5.2,14.1-12.9,13.9-7.3-.2-11.8-5.2-12.1-13.9-.3-8.7-.4-17.3-.6-26,.3-7,.6-14.1.9-21.2,0-4.7-.1-9.5-.1-14.2,8.2,0,16.4,0,24.6,0,0,4.7.1,9.5.2,14.2h0Z"/>
  <rect class="st8" x="188.6" y="214.3" width="25.7" height="392.4"/>
  <rect class="st5" x="24.1" y="190.8" width="447.4" height="24.4" rx="11.5" ry="11.5"/>
  <rect class="st1" x="233.1" y="215.2" width="217.3" height="391.3"/>
  <rect class="st3" x="80" y="49.8" width="81.4" height="24.4" rx="11.5" ry="11.5"/>
  <g>
    <path class="st1" d="M267.9,62.9l20.1,77.5c.9,3.6-1.2,7.3-4.9,8.3l-30.2,7.8c-3.6.9-7.3-1.2-8.3-4.9l-6.7-26c-2.2-8.3-1.1-17.2,2.9-24.8l7.7-14.5c4.3-8.1,5.6-17.4,3.6-26.4l-2.7-14.2c-.8-3.6,1.5-6.8,5-7.7h0c3.6-.9,7.4,1.6,8.3,5.2l5.1,19.6h0Z"/>
    <path class="st1" d="M255,22.7l-30.4,7.9c-2.5.7-4.1,3.2-3.4,5.8h0c.5,2.1,2.4,3.5,4.6,3.5,5.1,0,14.1.7,18.4,4.8,1.2,1.2,2.9,1.6,4.5,1.2l15.5-4c2.4-.6,3.9-3,3.4-5.4-.2-1.2-.4-2.6-.4-4.2,0-6.4-6-11.1-12.2-9.5h0Z"/>
    <path class="st1" d="M238.2,61.3c.2,0,.4-.1.5-.3,10.4-8,10.8-20.8,10.8-21.3,0-.8-.6-1.5-1.4-1.5-.8,0-1.5.6-1.5,1.4,0,.2-.4,12-9.6,19-.6.5-.8,1.4-.3,2.1.4.5,1,.7,1.5.5Z"/>
    <rect class="st1" x="237.8" y="110.7" width="44.7" height="23.5" transform="translate(-22.4 69.1) rotate(-14.5)"/>
  </g>
  <g>
    <path class="st1" d="M317.5,70.3l-16.3,78.4c-.8,3.7-4.4,6-8,5.3l-30.5-6.4c-3.7-.8-6-4.4-5.3-8l5.5-26.3c1.8-8.4,6.6-15.9,13.6-20.9l13.4-9.6c7.4-5.4,12.7-13.2,14.9-22.1l3.8-14c.9-3.5,4.3-5.4,7.9-4.7h0c3.7.8,5.9,4.7,5.2,8.4l-4.1,19.9h0Z"/>
    <path class="st1" d="M323.7,28.5l-30.8-6.4c-2.6-.5-5.1,1.1-5.6,3.7h0c-.4,2.1.6,4.2,2.5,5.2,4.5,2.3,12.3,6.9,14.3,12.4.6,1.6,1.9,2.7,3.5,3.1l15.7,3.3c2.4.5,4.8-1,5.5-3.4.3-1.1.8-2.5,1.5-3.9,2.8-5.8-.4-12.6-6.7-13.9Z"/>
    <path class="st1" d="M291.6,55.7c.2,0,.4,0,.6,0,12.8-2.6,18.8-13.9,19.1-14.3.4-.7,0-1.6-.6-2s-1.6,0-2,.6c0,.2-5.7,10.5-17.1,12.8-.8.2-1.3.9-1.1,1.7.1.6.6,1,1.1,1.2h0Z"/>
    <rect class="st1" x="272.5" y="98" width="23.5" height="44.7" transform="translate(108.5 374.2) rotate(-78.3)"/>
  </g>
  <path class="st7" d="M612.2,321.1c-2,0-3.8-1-4.9-2.8l-41.8-72.6v-57.2c0-3.1,2.5-5.6,5.6-5.6s5.6,2.5,5.6,5.6v54.1l40.3,70c1.5,2.7.6,6.1-2.1,7.7-.9.5-1.8.8-2.8.8h0Z"/>
  <path class="st8" d="M651.6,398h-83.2l-.5-37c0-6.8-5.7-12.1-12.4-12h-2.3s0-33.3,0-33.3c0-21.5,17.4-38.8,38.8-38.8h1c32.3,0,58.6,26.2,58.6,58.6v62.6h0Z"/>
  <path class="st7" d="M583.3,383l-.3-22.2c-.1-10.3-6.1-19.3-14.8-23.8v-21.4c0-13.1,10.7-23.8,23.8-23.8h1c24,0,43.6,19.5,43.6,43.6v47.6h-53.3,0Z"/>
  <path class="st7" d="M611.7,561.4c-.8-4.5-5.2-7.5-9.7-6.7l-47.3,8.8L460.3,6.9c-.8-4.5-5.1-7.6-9.6-6.8-4.5.8-7.6,5.1-6.8,9.6l94.4,556.8-48.1,8.9c-4.5.8-7.5,5.2-6.7,9.7.4,2,1.4,3.7,2.9,4.9,1.8,1.5,4.3,2.2,6.8,1.8l111.7-20.7c4.5-.8,7.5-5.2,6.7-9.7h0Z"/>
  <polygon class="st5" points="463 606.6 643.2 606.6 668.5 389.9 463 389.9 463 606.6"/>
  <rect class="st3" x="459" y="389.9" width="213.5" height="15.9"/>
  <path class="st0" d="M661.6,506.5h-197.5c-2.3,0-4.1-3.7-4.1-8.3s1.9-8.3,4.1-8.3h197.5c2.3,0,4.2,3.7,4.2,8.3s-1.9,8.3-4.2,8.3Z"/>
  <path class="st7" d="M679.5,471.5l-112.2-57.9c-4.8-2.5-6.3-8.5-3.3-13l.3-.5c2.7-3.9,7.9-5.1,12-2.7l109,64.8-5.7,9.2h0Z"/>
  <polygon class="st7" points="328.4 190.4 235.6 190.4 222.6 78.8 328.4 78.8 328.4 190.4"/>
  <polygon class="st7" points="332.9 190.4 425.6 190.4 438.7 78.8 332.9 78.8 332.9 190.4"/>
  <rect class="st8" x="220.2" y="78.8" width="109.9" height="8.2"/>
  <rect class="st8" x="330.8" y="78.8" width="110" height="8.2"/>
  <path class="st8" d="M432.5,138.9h-203.4c-2.4,0-4.3-1.9-4.3-4.3s1.9-4.3,4.3-4.3h203.4c2.4,0,4.3,1.9,4.3,4.3s-1.9,4.3-4.3,4.3Z"/>
  <path class="st1" d="M418.6,153.9c-1.1-1.3-2.4-2.5-3.7-3.7-3.5-3.2-6.9-6.1-7.8-11.1l-3.9,11.8c-.4,2.4-1.4,4.4-2.9,5.8-3.7,4-10.2,4.8-14.8.8h0c0,0-.1-.2-.2-.2l-1.5-1.3c-1.5-1.4-3.1-2.9-5.1-3.1-.5,0-1.1.7-1.7,1.9-3.1,5.5-11,5.9-14.2.4-1.1-1.9-2.3-3.8-3.6-5.5-3.1-4.1-6.7-7-10.7-6.5-1.4-20.8-3-34.8-4.4-55.7-.1-3.2-1.9-5.5-1-8.5,1.1-3.8,29.5.1,33.5,0,16.8-.8,44.4-2.2,44.8,0,0,0,3.5,30.3-3,75h0Z"/>
  <path class="st4" d="M385,154.4c.2,1,.4,2,.7,3,0,0-.1,0-.2-.1l-1.5-1.3c-1.5-1.4-3.1-2.9-5.1-3.1-.5,0-1.1.7-1.7,1.9-3.1,5.5-11,5.9-14.2.4-1.1-1.9-2.3-3.8-3.6-5.5-.7-22-1.5-44.1-2.3-66.2,2.9,21.2,7.4,42,13.3,62.5,3.3-18.8,3.8-38.2,1.1-57.2,4.5,21.9,9,43.8,13.5,65.8h0Z"/>
  <path class="st4" d="M414.9,150.2c-3.5-3.2-6.9-6.1-7.8-11.1l-3.9,11.8c-.4,2.4-1.4,4.4-2.9,5.8.7-35.8,3.4-36,.6-71.7,6.4,33.5,7.5,31.6,13.9,65.1h0Z"/>
  <path class="st8" d="M230.9,489.9h430.4c4.6,0,8.3,3.7,8.3,8.3h0c0,4.6-3.7,8.3-8.3,8.3H230.9c-4.6,0-8.3-3.7-8.3-8.3h0c0-4.6,3.7-8.3,8.3-8.3Z"/>
  <path class="st8" d="M229.6,311.2h222.1c4.6,0,8.3,3.7,8.3,8.3h0c0,4.6-3.7,8.3-8.3,8.3h-222.1c-4.6,0-8.3-3.7-8.3-8.3h0c0-4.6,3.7-8.3,8.3-8.3Z"/>
  <rect class="st8" x="446.1" y="214.3" width="16.6" height="392.4"/>
</svg>