<?xml version="1.0" encoding="UTF-8"?><svg xmlns="http://www.w3.org/2000/svg" viewBox="0 0 555.49 777.36"><defs><style>.d{fill:#84bd49;}.e{fill:#373937;}.f{fill:#e8e8e8;}.g{fill:#cecdce;}.h{fill:#5a5d5b;}</style></defs><g id="a"/><g id="b"><g id="c"><rect class="f" x="93.58" y="309.26" width="17.96" height="90.73" rx="8.98" ry="8.98" transform="translate(-156.94 92.07) rotate(-28.53)"/><rect class="f" x="45.4" y="233.01" width="17.96" height="66.02" rx="8.98" ry="8.98" transform="translate(-120.47 58.29) rotate(-28.53)"/><rect class="f" x="7.3" y="171.7" width="17.96" height="48.51" rx="8.98" ry="8.98" transform="translate(-91.63 31.58) rotate(-28.53)"/><rect class="f" x="77.34" y="95.47" width="17.96" height="83.56" rx="8.98" ry="8.98" transform="translate(-55.08 57.9) rotate(-28.53)"/><rect class="f" x="151.17" y="182.3" width="17.96" height="181.48" rx="8.98" ry="8.98" transform="translate(-110.97 109.67) rotate(-28.53)"/><rect class="f" x="261.59" y="254.64" width="17.96" height="56.37" rx="8.98" ry="8.98" transform="translate(-102.24 163.61) rotate(-28.53)"/><rect class="f" x="198.95" y="86.07" width="17.96" height="163.09" rx="8.98" ry="8.98" transform="translate(-54.81 119.69) rotate(-28.53)"/><rect class="f" x="143.4" y="51.48" width="17.96" height="27.97" rx="8.98" ry="8.98" transform="translate(-12.76 80.74) rotate(-28.53)"/><rect class="f" x="237.23" y="8.52" width="17.96" height="83.5" rx="8.98" ry="8.98" transform="translate(5.89 123.72) rotate(-28.53)"/><rect class="f" x="279.9" y="104.49" width="17.96" height="48.51" rx="8.98" ry="8.98" transform="translate(-26.41 153.63) rotate(-28.53)"/><rect class="f" x="328.12" y="163.57" width="17.96" height="107.72" rx="8.98" ry="8.98" transform="translate(-62.91 187.44) rotate(-28.53)"/><rect class="f" x="391.03" y="53.08" width="17.96" height="179.06" rx="8.98" ry="8.98" transform="translate(-19.54 208.41) rotate(-28.53)"/><rect class="f" x="325.67" y="-1.85" width="17.96" height="48.51" rx="8.98" ry="8.98" transform="translate(29.95 162.58) rotate(-28.53)"/><path class="g" d="M52.18,288.49H509.65c1.25,0,2.27,1.02,2.27,2.27v33.62H49.91v-33.62c0-1.25,1.02-2.27,2.27-2.27Z" transform="translate(-112.26 171.41) rotate(-28.53)"/><path class="d" d="M72.91,317.85h462.02c0,34.1-27.68,61.78-61.78,61.78H134.69c-34.1,0-61.78-27.68-61.78-61.78h0Z" transform="translate(-129.67 187.54) rotate(-28.53)"/><rect class="g" x="350.44" y="362.48" width="38.72" height="208.2" transform="translate(-177.96 233.32) rotate(-28.53)"/><polygon class="e" points="478.09 584.24 406.95 622.92 388.47 573.41 449.32 540.33 478.09 584.24"/><path class="h" d="M447.94,591.9h80.97v151.72c0,22.34-18.14,40.49-40.49,40.49h0c-22.34,0-40.49-18.14-40.49-40.49v-151.72h0Z" transform="translate(-269.32 316.89) rotate(-28.53)"/></g></g></svg>