<?xml version="1.0" encoding="UTF-8"?>
<svg id="Layer_1" xmlns="http://www.w3.org/2000/svg" version="1.1" viewBox="0 0 555.5 777.4">
  <!-- Generator: Adobe Illustrator 29.0.0, SVG Export Plug-In . SVG Version: 2.1.0 Build 186)  -->
  <defs>
    <style>
      .st0 {
        fill: #2e3192;
      }

      .st1 {
        fill: #5a5d5b;
      }

      .st2 {
        fill: #ed1c24;
      }

      .st3 {
        fill: #cecdce;
      }

      .st4 {
        fill: #e8e8e8;
      }
    </style>
  </defs>
  <path class="st4" d="M80.9,314.8h0c4.4-2.4,9.8-.8,12.2,3.6l34.8,63.9c2.4,4.4.8,9.8-3.6,12.2h0c-4.4,2.4-9.8.8-12.2-3.6l-34.8-63.9c-2.4-4.4-.8-9.8,3.6-12.2Z"/>
  <path class="st4" d="M38.6,237h0c4.4-2.4,9.8-.8,12.2,3.6l23,42.2c2.4,4.4.8,9.8-3.6,12.2h0c-4.4,2.4-9.8.8-12.2-3.6l-23-42.2c-2.4-4.4-.8-9.8,3.6-12.2Z"/>
  <path class="st4" d="M4.7,174.7h0c4.4-2.4,9.8-.8,12.2,3.6l14.6,26.8c2.4,4.4.8,9.8-3.6,12.2h0c-4.4,2.4-9.8.8-12.2-3.6l-14.6-26.8c-2.4-4.4-.8-9.8,3.6-12.2Z"/>
  <path class="st4" d="M66.4,100.5h0c4.4-2.4,9.8-.8,12.2,3.6l31.3,57.6c2.4,4.4.8,9.8-3.6,12.2h0c-4.4,2.4-9.8.8-12.2-3.6l-31.3-57.6c-2.4-4.4-.8-9.8,3.6-12.2Z"/>
  <rect class="st4" x="151.2" y="182.3" width="18" height="181.5" rx="9" ry="9" transform="translate(-111 109.6) rotate(-28.5)"/>
  <path class="st4" d="M257.1,258.1h0c4.4-2.4,9.8-.8,12.2,3.6l18.3,33.7c2.4,4.4.8,9.8-3.6,12.2h0c-4.4,2.4-9.8.8-12.2-3.6l-18.3-33.7c-2.4-4.4-.8-9.8,3.6-12.2Z"/>
  <rect class="st4" x="198.9" y="86.1" width="18" height="163.1" rx="9" ry="9" transform="translate(-54.8 119.7) rotate(-28.5)"/>
  <path class="st4" d="M145.7,53.2h0c4.4-2.4,9.8-.8,12.2,3.6l4.8,8.8c2.4,4.4.8,9.8-3.6,12.2h0c-4.4,2.4-9.8.8-12.2-3.6l-4.8-8.8c-2.4-4.4-.8-9.8,3.6-12.2Z"/>
  <rect class="st4" x="237.2" y="8.5" width="18" height="83.5" rx="9" ry="9" transform="translate(5.9 123.7) rotate(-28.5)"/>
  <path class="st4" d="M277.3,107.5h0c4.4-2.4,9.8-.8,12.2,3.6l14.6,26.8c2.4,4.4.8,9.8-3.6,12.2h0c-4.4,2.4-9.8.8-12.2-3.6l-14.6-26.8c-2.4-4.4-.8-9.8,3.6-12.2Z"/>
  <path class="st4" d="M311.4,170.1h0c4.4-2.4,9.8-.8,12.2,3.6l42.9,78.9c2.4,4.4.8,9.8-3.6,12.2h0c-4.4,2.4-9.8.8-12.2-3.6l-42.9-78.9c-2.4-4.4-.8-9.8,3.6-12.2Z"/>
  <path class="st4" d="M357.2,64h0c4.4-2.4,9.8-.8,12.2,3.6l76.9,141.5c2.4,4.4.8,9.8-3.6,12.2h0c-4.4,2.4-9.8.8-12.2-3.6l-76.9-141.5c-2.4-4.4-.8-9.8,3.6-12.2Z"/>
  <path class="st4" d="M323.1,1.1h0c4.4-2.4,9.8-.8,12.2,3.6l14.6,26.8c2.4,4.4.8,9.8-3.6,12.2h0c-4.4,2.4-9.8.8-12.2-3.6l-14.6-26.8c-2.4-4.4-.8-9.8,3.6-12.2Z"/>
  <path class="st3" d="M71.4,399.9l401.9-218.5c1.1-.6,2.5-.2,3.1.9l16.1,29.5L86.5,432.6l-16.1-29.5c-.6-1.1-.2-2.5.9-3.1Z"/>
  <path class="st0" d="M86.2,432l405.9-220.7c16.3,30,5.2,67.5-24.8,83.8l-297.4,161.7c-30,16.3-67.5,5.2-83.8-24.8h0Z"/>
  <rect class="st3" x="350.4" y="362.5" width="38.7" height="208.2" transform="translate(-178 233.3) rotate(-28.5)"/>
  <polygon class="st2" points="478.1 584.2 407 622.9 388.5 573.4 449.3 540.3 478.1 584.2"/>
  <path class="st1" d="M406.9,623l71.1-38.7,72.5,133.3c10.7,19.6,3.4,44.2-16.2,54.9h0c-19.6,10.7-44.2,3.4-54.9-16.2l-72.5-133.3h0Z"/>
</svg>