<?xml version="1.0" encoding="UTF-8"?>
<svg id="Layer_1" xmlns="http://www.w3.org/2000/svg" version="1.1" viewBox="0 0 443.5 770.9">
  <!-- Generator: Adobe Illustrator 29.0.0, SVG Export Plug-In . SVG Version: 2.1.0 Build 186)  -->
  <defs>
    <style>
      .st0 {
        fill: #2e3192;
      }

      .st1 {
        fill: #5a5d5b;
      }

      .st2 {
        fill: #ed1c24;
      }

      .st3 {
        fill: #cecdce;
      }

      .st4 {
        fill: #e8e8e8;
      }
    </style>
  </defs>
  <path class="st3" d="M384.4,685.8c1.5-164.7,4.3-314.8,4.3-478.4s-5-21.5-42.9-21.2c-31.7.3-64.3-7.8-65.8,24.7-1.6,36.5,3.9,73.6-3.6,109.5-8.8,41.7-40,78.7-81.4,96.6-27.1,11.7-58.9,16-80.7,35.1-22.4,19.6-28.7,50-32.5,78.3-7.8,58.5-10.1,117.6-6.7,176.4.8,14.3,2.3,29.6,11.9,40.8,12.6,14.9,35,18.3,55.3,20,54.9,4.5,110.2,4.2,165-1,22.3-2.1,46.5-6,61.2-21.7,14.7-15.6,15.6-38.4,15.8-59.1h0Z"/>
  <path class="st1" d="M238.4,97.3s-15.8,17.2-16.4,38.5c-.5,16.4-16.3,29.2-23.6,34.3-2,1.4-2.6,3.9-1.2,5.9h0c1.4,2.1,4.3,2.8,6.7,1.6,9.2-4.5,30.3-17.1,35.7-40.7.8-3.6,4.3-6.3,8.5-6.4l33.5-.7-43.1-32.5h0Z"/>
  <path class="st0" d="M385,150.3h-103.9l-2.4-10.4c-2.4-10.1-9.8-18.8-20.2-23.4l-34.8-15.5c-3.3-1.5-5.4-4.5-5.4-7.8v-33.6c0-3.4,3-6.2,6.9-6.2h120.2s42.5-2.2,77.1,19.5c7.9,5,13.9,11,18.4,16.7,6.8,8.7-.2,20.5-12.1,20.5h-19.2c-13.6,0-24.6,9.8-24.6,21.9v18.2h0Z"/>
  <path class="st2" d="M213.4,90.6l-28.5-2.2c-2.3-.2-4.1-1.9-4.1-3.9v-20.9c0-2.1,1.8-3.8,4.1-4l28.5-1.8c2.6-.2,4.8,1.7,4.8,4v24.8c0,2.3-2.2,4.2-4.8,3.9h0Z"/>
  <path class="st2" d="M308.9,150.3h52.2c5.3,0,9.5,4.3,9.5,9.5v20.8c0,5.3-4.3,9.5-9.5,9.5h-52.2c-5.3,0-9.5-4.3-9.5-9.5v-20.8c0-5.3,4.3-9.5,9.5-9.5Z"/>
  <path class="st2" d="M243.3,706.2c-59,.5-106.8-47.2-106.8-105.5,0-58,47.5-105.6,105.5-105.7,58.2-.1,105.9,47.3,105.6,105.8,0,57.6-47.1,105-104.3,105.4h0ZM310,654.9c22.9-26.3,28.9-74.8-1.2-110.4-33-39-87.8-39.3-121.1-12,3,2.8,6.1,5.7,9.1,8.5,4.3,4.4,8.7,8.7,13,13.1,4.8,4.8,9.6,9.7,14.3,14.5.3.4.6.8.9,1.2,15.9,16,31.9,31.9,47.8,47.8.4.3.8.6,1.1,1,4.8,4.8,9.7,9.6,14.5,14.3,4.4,4.3,8.8,8.7,13.1,13,2.8,3,5.6,6,8.4,8.9h0ZM173.6,546.6c-25.3,30.6-27.1,81.3,6.2,115.1,33.8,34.3,85.1,32.9,116.1,7.3l-8.2-8.7c-2.9-3-5.8-6.1-8.8-9.1-1.5-1.5-3.1-2.8-4.6-4.1-4.8-4.8-9.6-9.7-14.4-14.5-.3-.4-.6-.8-1-1.1-15.9-15.9-31.9-31.9-47.8-47.8-.4-.3-.8-.6-1.1-1-4.8-4.8-9.7-9.6-14.5-14.3-.5-.6-.9-1.3-1.4-1.9-3.9-3.9-7.9-7.7-11.9-11.5-2.9-2.8-5.8-5.5-8.7-8.2h0Z"/>
  <path class="st0" d="M246.6,554c0,2.9,0,5.7,0,8.6,0,1.1.4,1.5,1.5,1.8,3,.7,6,1.5,8.8,2.7,2.7,1.1,5.1,2.8,7.6,4.2l10.8-10.7c2.2,2.2,4.3,4.4,6.5,6.7-3.6,3.6-7.1,7.2-10.8,10.9,3.8,5.1,6.2,10.6,7.2,16.7,0,.5,1.1,1,1.6,1.1,2.9.1,5.7,0,8.6,0v9.2c-2.8,0-5.6,0-8.4,0-1.3,0-1.7.5-2.1,1.7-1.2,3.9-2.8,7.8-4.2,11.6-.4-.3-.8-.6-1.1-1-16-15.9-31.9-31.9-47.9-47.8-.4-.3-.6-.8-.9-1.2,3.9-1.4,7.7-2.9,11.6-4.2,1.3-.4,1.8-.7,1.7-2.1,0-2.8,0-5.6,0-8.4h9.2ZM255.8,582.2c-2.6,0-4.8,2.4-4.6,4.9.2,2.4,2.4,4.5,4.7,4.4,2.5,0,4.6-2.4,4.5-4.8-.1-2.4-2.3-4.5-4.6-4.5h0Z"/>
  <path class="st0" d="M202.1,634c3.6-3.6,7.2-7.3,10.9-11-3.8-5-6.2-10.5-7.2-16.6,0-.4-1.1-1-1.7-1-2.9-.1-5.7,0-8.6,0v-9.2c2.8,0,5.6,0,8.4,0,1.3,0,1.7-.5,2.1-1.7,1.2-3.9,2.8-7.8,4.2-11.6.4.3.8.6,1.1,1,15.9,15.9,31.9,31.9,47.8,47.8.4.3.6.8,1,1.1-3.9,1.4-7.7,3-11.6,4.2-1.3.4-1.8.7-1.7,2.1,0,2.8,0,5.6,0,8.4h-9.2c0-2.8,0-5.6,0-8.4,0-1.3-.4-1.8-1.8-2-5.2-.8-9.9-2.8-14.2-5.7-.6-.4-1.3-.8-1.9-1.3-3.7,3.7-7.3,7.2-10.8,10.8-2.2-2.2-4.4-4.3-6.6-6.5h0ZM223.6,614.5c0,2.5,2.4,4.7,4.8,4.5,2.4,0,4.5-2.3,4.5-4.6,0-2.4-2.2-4.7-4.7-4.7-2.4,0-4.7,2.3-4.6,4.7h0Z"/>
  <path class="st0" d="M182.3,554.9c.3,7.7,6.2,13.6,13.2,13.4-.5-.6-.9-1.3-1.4-1.9-3.9-3.9-7.9-7.7-11.9-11.5Z"/>
  <path class="st0" d="M274.4,647c-.2,6,4.5,11.8,10.6,13,.9.2,1.8.2,2.7.3-2.9-3-5.8-6.1-8.8-9.1-1.5-1.5-3.1-2.8-4.6-4.1h0Z"/>
  <path class="st0" d="M209.7,554.2c.2-7-5.8-13.1-13-13.1,4.3,4.4,8.7,8.7,13,13.1Z"/>
  <path class="st0" d="M301.6,645.9c0-7.2-6.2-13.2-13.1-13,4.4,4.3,8.8,8.7,13.1,13Z"/>
  <path class="st0" d="M208.7,640.5c-2.2-2.2-4.4-4.3-6.6-6.5-5.1-1.9-10-1.8-14.4,1.7-4.6,3.6-6.3,8.5-4.9,14.1,1.4,5.5,5,9.1,10.7,10.2,10.5,2,18.9-7.7,15.6-17.9-.2-.5-.3-1.1-.5-1.7h0Z"/>
  <path class="st0" d="M195.5,605.2v-9.2c-2.2-4.5-5.4-7.8-10.6-8.9-5.6-1.1-11.6,1.6-14.6,6.7-2.8,4.8-2.1,11.5,1.5,15.6,6.8,7.7,18.2,6.2,22.9-3,.2-.4.5-.9.8-1.3h0Z"/>
  <path class="st0" d="M246.6,647.1h-9.2c-4.5,2.2-7.8,5.4-8.9,10.6-1.1,5.5,1.6,11.6,6.8,14.6,4.8,2.8,11.5,2.2,15.6-1.5,7.7-6.8,6.2-18.2-3-22.9-.4-.2-.9-.5-1.3-.8Z"/>
  <path class="st0" d="M275.4,560.6c2.2,2.2,4.3,4.4,6.5,6.7,3.7,1.2,7.4,1.7,11.1.2,5.2-2,9.2-7.9,8.8-13.3-.5-6.5-5-11.8-11-13-10.6-2.1-19.3,7.7-15.9,18,.2.5.3,1,.5,1.4h0Z"/>
  <path class="st0" d="M237.4,554h9.2c4.5-2.2,7.8-5.4,8.9-10.6,1.1-5.5-1.6-11.6-6.8-14.6-4.9-2.9-11.4-2.2-15.6,1.5-7.7,6.8-6.2,18.2,2.9,22.9.4.2.9.5,1.3.8h0Z"/>
  <path class="st0" d="M288.6,596v9.2c2.2,4.5,5.4,7.8,10.6,8.9,5.5,1.1,11.6-1.6,14.6-6.8,2.9-4.9,2.2-11.4-1.5-15.6-6.8-7.7-18.2-6.2-22.9,3-.2.4-.5.9-.8,1.3h0Z"/>
  <rect class="st4" x="127.8" y="108.8" width="31.4" height="10" rx="5" ry="5" transform="translate(-23.9 39.6) rotate(-14.5)"/>
  <path class="st4" d="M28.9,143.4h0c-.7-2.7.9-5.4,3.6-6.1l78.2-20.2c2.7-.7,5.4.9,6.1,3.6h0c.7,2.7-.9,5.4-3.6,6.1l-78.2,20.2c-2.7.7-5.4-.9-6.1-3.6Z"/>
  <path class="st4" d="M0,76.7h0c0-2.8,2.2-5,5-5h36.5c2.8,0,5,2.2,5,5h0c0,2.8-2.2,5-5,5H5c-2.8,0-5-2.2-5-5Z"/>
  <path class="st4" d="M59.4,76.7h0c0-2.8,2.2-5,5-5h17c2.8,0,5,2.2,5,5h0c0,2.8-2.2,5-5,5h-17c-2.8,0-5-2.2-5-5Z"/>
  <rect class="st4" x="99.1" y="71.7" width="59.9" height="10" rx="5" ry="5"/>
  <path class="st4" d="M64.6,16.3h0c.9-2.6,3.7-4,6.4-3.1l84.7,29.2c2.6.9,4,3.7,3.1,6.4h0c-.9,2.6-3.7,4-6.4,3.1l-84.7-29.2c-2.6-.9-4-3.7-3.1-6.4Z"/>
  <rect class="st4" x="34.7" y="-5.7" width="10" height="27" rx="5" ry="5" transform="translate(19.4 42.8) rotate(-71)"/>
</svg>