<?xml version="1.0" encoding="UTF-8"?><svg xmlns="http://www.w3.org/2000/svg" viewBox="0 0 443.53 770.87"><defs><style>.d{fill:#569c33;}.e{fill:#373937;}.f{fill:#e8e8e8;}.g{fill:#cecdce;}.h{fill:#5a5d5b;}.i{fill:#83bd49;}</style></defs><g id="a"/><g id="b"><g id="c"><g><path class="g" d="M384.38,685.85c1.45-164.74,4.34-314.76,4.34-478.44,0-14.77-5.01-21.53-42.9-21.16-31.73,.31-64.33-7.81-65.76,24.71-1.61,36.51,3.89,73.56-3.65,109.45-8.75,41.69-39.99,78.74-81.41,96.56-27.13,11.67-58.92,16.02-80.69,35.08-22.36,19.59-28.66,49.98-32.46,78.34-7.83,58.47-10.08,117.59-6.72,176.44,.82,14.32,2.34,29.57,11.86,40.85,12.58,14.91,35.01,18.35,55.31,20.03,54.88,4.54,110.23,4.2,165.04-1.02,22.28-2.12,46.52-6.02,61.25-21.72,14.68-15.64,15.61-38.36,15.8-59.12Z"/><path class="h" d="M238.43,97.29s-15.77,17.15-16.44,38.45c-.51,16.35-16.29,29.22-23.59,34.31-2.03,1.42-2.56,3.95-1.24,5.92h0c1.38,2.05,4.34,2.78,6.69,1.62,9.19-4.49,30.28-17.15,35.67-40.7,.83-3.63,4.32-6.28,8.48-6.38l33.48-.74-43.06-32.48Z"/><path class="i" d="M385.04,150.32h-103.89l-2.42-10.36c-2.37-10.14-9.82-18.76-20.22-23.39l-34.82-15.5c-3.32-1.48-5.41-4.49-5.42-7.8l-.06-33.61c0-3.41,3.09-6.18,6.92-6.18h120.21s42.51-2.19,77.15,19.5c7.92,4.96,13.93,10.98,18.4,16.73,6.75,8.67-.22,20.53-12.07,20.53h-19.21c-13.57,0-24.57,9.8-24.57,21.89v18.19Z"/><path class="e" d="M213.44,90.64l-28.54-2.17c-2.3-.17-4.07-1.89-4.07-3.95v-20.86c0-2.08,1.81-3.81,4.14-3.95l28.54-1.76c2.57-.16,4.76,1.66,4.76,3.95v24.79c0,2.32-2.23,4.15-4.83,3.95Z"/><path class="e" d="M308.93,150.32h52.19c5.26,0,9.54,4.27,9.54,9.54v20.83c0,5.26-4.27,9.54-9.54,9.54h-52.19c-5.26,0-9.54-4.27-9.54-9.54v-20.83c0-5.26,4.27-9.54,9.54-9.54Z"/></g><g><path class="e" d="M243.26,706.23c-58.99,.49-106.85-47.19-106.83-105.54,.03-58,47.52-105.57,105.53-105.69,58.16-.12,105.92,47.34,105.63,105.81,.07,57.63-47.06,104.95-104.34,105.43Zm66.69-51.37c22.85-26.27,28.89-74.8-1.2-110.36-33.03-39.04-87.83-39.32-121.11-11.96,3.04,2.85,6.05,5.68,9.06,8.51,4.33,4.37,8.66,8.74,13,13.11,4.77,4.83,9.55,9.67,14.32,14.5,.31,.38,.6,.8,.95,1.15,15.94,15.95,31.89,31.9,47.85,47.85,.35,.35,.76,.63,1.15,.95,4.84,4.78,9.68,9.56,14.52,14.34,4.37,4.33,8.75,8.66,13.12,13,2.78,2.97,5.56,5.95,8.36,8.94Zm-136.31-108.22c-25.33,30.64-27.07,81.28,6.2,115.08,33.8,34.35,85.13,32.89,116.14,7.26l-8.25-8.7c-2.92-3.04-5.8-6.12-8.77-9.12-1.45-1.46-3.06-2.76-4.59-4.14-4.78-4.84-9.56-9.68-14.35-14.52-.32-.38-.6-.8-.95-1.14-15.93-15.94-31.87-31.88-47.82-47.82-.35-.35-.76-.63-1.15-.95-4.84-4.78-9.67-9.56-14.51-14.34-.46-.62-.85-1.32-1.39-1.86-3.94-3.86-7.9-7.68-11.86-11.51-2.91-2.75-5.81-5.51-8.7-8.25Z"/><path class="i" d="M246.64,554.05c0,2.86,.06,5.72,.01,8.58-.02,1.14,.37,1.54,1.52,1.82,2.97,.73,5.97,1.49,8.78,2.66,2.67,1.11,5.11,2.77,7.62,4.17l10.84-10.68c2.16,2.22,4.32,4.43,6.48,6.65-3.57,3.59-7.15,7.19-10.8,10.86,3.76,5.08,6.23,10.57,7.22,16.7,.07,.45,1.06,1.05,1.64,1.07,2.86,.12,5.73,.07,8.6,.08,0,3.08,0,6.16,0,9.23-2.79,0-5.58,.08-8.37,0-1.34-.04-1.68,.47-2.07,1.74-1.22,3.93-2.75,7.76-4.16,11.64-.38-.31-.8-.6-1.15-.95-15.95-15.94-31.9-31.89-47.85-47.85-.35-.35-.63-.76-.95-1.15,3.88-1.41,7.71-2.93,11.65-4.15,1.27-.39,1.78-.73,1.74-2.07-.08-2.79,0-5.58,0-8.38,3.08,0,6.16,0,9.23,0Zm9.17,28.12c-2.6,.05-4.82,2.41-4.63,4.9,.19,2.43,2.37,4.45,4.73,4.37,2.46-.08,4.64-2.39,4.53-4.8-.12-2.39-2.32-4.52-4.63-4.48Z"/><path class="i" d="M202.05,633.98c3.6-3.64,7.2-7.29,10.86-11-3.75-5.03-6.18-10.53-7.18-16.64-.07-.44-1.07-1.02-1.66-1.04-2.86-.12-5.72-.07-8.58-.08,0-3.08,0-6.16,0-9.23,2.79,0,5.58-.08,8.37,0,1.34,.04,1.68-.47,2.07-1.74,1.22-3.93,2.76-7.76,4.17-11.63,.38,.31,.8,.6,1.14,.95,15.94,15.93,31.88,31.87,47.82,47.82,.35,.35,.63,.76,.95,1.14-3.87,1.42-7.7,2.95-11.63,4.17-1.27,.4-1.78,.73-1.74,2.07,.08,2.79,0,5.58,0,8.37-3.08,0-6.16,0-9.24,0,0-2.8-.08-5.59,0-8.39,.04-1.35-.4-1.82-1.77-2.04-5.16-.84-9.9-2.8-14.22-5.74-.63-.43-1.26-.85-1.92-1.29-3.71,3.7-7.26,7.25-10.8,10.79-2.21-2.16-4.43-4.32-6.64-6.49Zm21.56-19.52c.06,2.46,2.36,4.65,4.77,4.55,2.36-.09,4.48-2.27,4.5-4.62,.01-2.44-2.23-4.68-4.67-4.65-2.45,.02-4.66,2.29-4.6,4.72Z"/><path class="d" d="M182.33,554.89c.31,7.66,6.19,13.59,13.25,13.37-.46-.62-.85-1.32-1.39-1.86-3.94-3.86-7.9-7.68-11.86-11.51Z"/><path class="d" d="M274.36,647.02c-.19,6,4.53,11.76,10.63,12.95,.9,.18,1.82,.21,2.74,.3-2.92-3.04-5.8-6.12-8.77-9.12-1.45-1.46-3.06-2.76-4.59-4.14Z"/><path class="d" d="M209.69,554.15c.2-6.97-5.84-13.07-13-13.12,4.33,4.37,8.66,8.74,13,13.12Z"/><path class="d" d="M301.59,645.92c-.08-7.19-6.16-13.21-13.12-13,4.37,4.33,8.75,8.66,13.12,13Z"/><path class="d" d="M208.69,640.46c-2.21-2.16-4.43-4.32-6.64-6.49-5.09-1.88-10-1.79-14.39,1.73-4.55,3.64-6.32,8.47-4.88,14.11,1.41,5.51,5.04,9.12,10.73,10.18,10.48,1.95,18.86-7.69,15.65-17.89-.17-.54-.31-1.1-.46-1.65Z"/><path class="d" d="M195.49,605.21c0-3.08,0-6.16,0-9.23-2.2-4.53-5.37-7.84-10.56-8.91-5.55-1.14-11.63,1.58-14.62,6.74-2.79,4.82-2.15,11.54,1.5,15.64,6.84,7.68,18.24,6.2,22.91-2.96,.23-.44,.5-.86,.76-1.29Z"/><path class="d" d="M246.64,647.13c-3.08,0-6.16,0-9.24,0-4.54,2.19-7.84,5.37-8.9,10.56-1.14,5.55,1.58,11.62,6.75,14.61,4.82,2.8,11.53,2.15,15.64-1.5,7.68-6.83,6.2-18.24-2.96-22.91-.44-.23-.86-.5-1.29-.76Z"/><path class="d" d="M275.41,560.61c2.16,2.22,4.32,4.43,6.48,6.65,3.69,1.21,7.36,1.65,11.12,.2,5.24-2.02,9.17-7.89,8.79-13.28-.45-6.47-4.95-11.8-10.95-12.99-10.64-2.11-19.29,7.68-15.9,17.99,.16,.48,.31,.95,.47,1.43Z"/><path class="d" d="M237.41,554.05c3.08,0,6.16,0,9.23,0,4.53-2.2,7.84-5.37,8.91-10.56,1.14-5.55-1.57-11.58-6.76-14.62-4.9-2.87-11.41-2.24-15.63,1.5-7.68,6.82-6.21,18.24,2.95,22.92,.44,.23,.86,.5,1.29,.76Z"/><path class="d" d="M288.56,595.98c0,3.08,0,6.16,0,9.23,2.19,4.54,5.37,7.84,10.56,8.91,5.55,1.14,11.57-1.56,14.62-6.76,2.86-4.88,2.23-11.43-1.51-15.62-6.84-7.68-18.24-6.21-22.92,2.95-.23,.44-.5,.86-.75,1.29Z"/></g><rect class="f" x="138.48" y="98.07" width="9.99" height="31.36" rx="5" ry="5" transform="translate(69.31 281.15) rotate(-104.51)"/><rect class="f" x="67.85" y="86.67" width="9.99" height="90.73" rx="5" ry="5" transform="translate(-36.71 235.65) rotate(-104.51)"/><rect class="f" x="18.23" y="53.49" width="9.99" height="46.45" rx="5" ry="5" transform="translate(-53.49 99.94) rotate(-90)"/><rect class="f" x="67.92" y="63.22" width="9.99" height="26.99" rx="5" ry="5" transform="translate(-3.8 149.63) rotate(-90)"/><rect class="f" x="124.08" y="46.75" width="9.99" height="59.93" rx="5" ry="5" transform="translate(52.36 205.79) rotate(-90)"/><rect class="f" x="106.66" y="-17.23" width="9.99" height="99.62" rx="5" ry="5" transform="translate(44.47 127.51) rotate(-70.98)"/><rect class="f" x="34.69" y="-5.73" width="9.99" height="26.99" rx="5" ry="5" transform="translate(19.41 42.75) rotate(-70.98)"/></g></g></svg>