<?xml version="1.0" encoding="UTF-8"?>
<svg id="Layer_1" xmlns="http://www.w3.org/2000/svg" version="1.1" viewBox="0 0 662.1 634.8">
  <!-- Generator: Adobe Illustrator 29.0.0, SVG Export Plug-In . SVG Version: 2.1.0 Build 186)  -->
  <defs>
    <style>
      .st0 {
        fill: #2e3192;
      }

      .st1 {
        fill: #5a5d5b;
      }

      .st2 {
        fill: #ed1c24;
      }

      .st3 {
        fill: #9a9999;
      }

      .st4 {
        fill: #cecdce;
      }
    </style>
  </defs>
  <g>
    <polygon class="st3" points="22 487.6 468.3 487.6 552.9 0 106.7 0 22 487.6"/>
    <path class="st3" d="M421.5,439.9h55.1l-29.8,171.7c-2.3,13.4-13.9,23.2-27.5,23.2h-9.2c-11.7,0-20.6-10.6-18.6-22.1l30-172.8h0Z"/>
    <path class="st3" d="M30.3,439.9h55.1l-29.8,171.7c-2.3,13.4-13.9,23.2-27.5,23.2h-9.3c-11.6,0-20.5-10.5-18.5-22l30-172.9h0Z"/>
  </g>
  <g>
    <polygon class="st4" points="640.3 487.6 194.1 487.6 109.4 0 555.7 0 640.3 487.6"/>
    <path class="st4" d="M240.9,439.9h-55.1l30.1,173.3c2.2,12.5,13,21.5,25.6,21.5h11.4c11.4,0,20.1-10.3,18.1-21.5l-30.1-173.3h0Z"/>
    <path class="st4" d="M632.1,439.9h-55.1l30.4,175.4c2,11.3,11.8,19.5,23.2,19.5h11.5c12.4,0,21.8-11.2,19.7-23.4l-29.8-171.5h0Z"/>
  </g>
  <path class="st1" d="M556.3,435.8h-300.2c-5.9,0-10.9-4.3-11.9-10.1L181.6,49.7c-1.2-7.4,4.4-14.1,11.9-14.1h303.5c5.9,0,11,4.3,11.9,10.2l59.3,376.1c1.2,7.3-4.5,14-11.9,14Z"/>
  <path class="st2" d="M556.3,447.3h-300.2c-11.6,0-21.4-8.3-23.3-19.7L170.3,51.6c-1.1-6.8.8-13.8,5.3-19.1,4.5-5.3,11-8.3,18-8.3h303.5c11.7,0,21.5,8.4,23.3,19.9l59.3,376.1c1.1,6.8-.9,13.7-5.4,19s-11,8.3-17.9,8.3h0ZM193.5,47.1c0,0-.3,0-.4.2-.2.2-.1.4-.1.5l62.6,376.1c0,.3.3.5.6.5h300.2c0,0,.3,0,.4-.2s.2-.4.1-.5l-59.3-376c0-.3-.3-.5-.6-.5,0,0-303.5,0-303.5,0Z"/>
  <g>
    <path class="st0" d="M506.7,298l-118.9-156.7c-4.6-6.1-11.8-9.7-19-9.5-6.9.2-12.8,3.8-15.9,9.6l-79.8,154.2c-3.2,6.3-2.7,14,1.6,20.5,4.1,6.4,11.3,10.6,18.6,11h.3l199,2.5c7.6.1,14-3.8,17-10.4,3.1-6.7,1.9-14.8-3-21.3h0ZM370.9,149.4c1.1,0,2.1.6,2.9,1.6l118.9,156.7c.8,1,1,2.1.6,3.1-.2.5-.6,1.1-1.9,1.1l-198.6-2.5h0c-1.2,0-2.5-.8-3.2-1.9-.6-1-.8-2.1-.4-2.9l79.8-154.2c.4-.8,1.2-1,1.8-1h.2Z"/>
    <g>
      <path class="st0" d="M384.3,273.6h1.5c3.1-.2,6.7-1.8,6.3-8.7h0c0,0-5.8-67.4-5.8-67.4-.3-3.4-1.4-5.9-3.4-7.8-1.8-1.6-4.2-2.4-6.8-2.3h-2.8c-2.5.2-4.6,1.2-6,2.9-1.5,1.9-2.1,4.6-1.5,7.9l10.8,67c1,7.6,6.2,8.3,7.7,8.4h0Z"/>
      <path class="st0" d="M399.1,290.2v-1.1c-.6-3.3-2-6.1-4.3-8-2.2-1.9-5.1-2.8-8.3-2.7h-1.3c-4.1.2-6.4,2.1-7.6,3.6-1.6,2.1-2.3,4.8-1.9,8v1.1c.5,3.1,1.9,5.8,4,7.7,1.4,1.2,3.8,2.8,7.4,2.9h2.2c4.1-.2,6.5-2,7.7-3.5,1.7-2,2.4-4.8,2-8h0Z"/>
    </g>
  </g>
</svg>