<?xml version="1.0" encoding="UTF-8"?><svg xmlns="http://www.w3.org/2000/svg" viewBox="0 0 662.13 634.77"><defs><style>.d{fill:#373937;}.e{fill:#cecdce;}.f{fill:#9a9999;}.g{fill:#5a5d5b;}.h{fill:#83bd49;}</style></defs><g id="a"/><g id="b"><g id="c"><g><polygon class="f" points="22.02 487.57 468.3 487.57 552.94 0 106.66 0 22.02 487.57"/><path class="f" d="M421.48,439.9h55.1l-29.81,171.71c-2.32,13.39-13.94,23.16-27.53,23.16h-9.16c-11.71,0-20.59-10.56-18.59-22.09l29.99-172.79Z"/><path class="f" d="M30.3,439.9h55.1l-29.81,171.72c-2.32,13.38-13.94,23.15-27.52,23.15h-9.3c-11.64,0-20.47-10.49-18.48-21.97l30.02-172.91Z"/></g><g><polygon class="e" points="640.33 487.57 194.05 487.57 109.42 0 555.69 0 640.33 487.57"/><path class="e" d="M240.87,439.9h-55.1l30.09,173.33c2.16,12.46,12.97,21.55,25.61,21.55h11.35c11.42,0,20.08-10.3,18.13-21.55l-30.09-173.33Z"/><path class="e" d="M632.06,439.9h-55.1l30.44,175.35c1.96,11.29,11.76,19.53,23.21,19.53h11.54c12.4,0,21.8-11.17,19.68-23.39l-29.77-171.49Z"/></g><g><path class="g" d="M556.34,435.83H256.1c-5.91,0-10.95-4.27-11.91-10.1L181.62,49.67c-1.22-7.36,4.45-14.06,11.91-14.06H497.07c5.94,0,11.01,4.33,11.93,10.2l59.27,376.06c1.16,7.33-4.51,13.96-11.93,13.96Z"/><path class="d" d="M556.34,447.33H256.1c-11.58,0-21.36-8.29-23.26-19.71L170.28,51.56c-1.14-6.85,.78-13.82,5.27-19.11,4.49-5.3,11.04-8.33,17.99-8.33H497.07c11.68,0,21.47,8.37,23.29,19.91l59.27,376.07c1.07,6.82-.88,13.74-5.37,18.99s-11.02,8.26-17.92,8.26ZM193.54,47.11c-.09,0-.27,0-.44,.2-.17,.21-.14,.38-.13,.47l62.56,376.06c.05,.28,.29,.48,.57,.48h300.24c.09,0,.27,0,.44-.2,.17-.2,.15-.38,.13-.47L497.64,47.6c-.04-.28-.28-.49-.57-.49H193.54Z"/></g><g><path class="h" d="M506.69,297.96l-118.86-156.73c-4.65-6.14-11.77-9.68-19.05-9.49-6.91,.17-12.84,3.77-15.86,9.61l-79.79,154.25c-3.25,6.28-2.66,13.95,1.56,20.51,4.14,6.44,11.27,10.65,18.63,10.99h.33l199.01,2.5c7.65,.1,14.01-3.79,17.03-10.39,3.05-6.66,1.9-14.81-3-21.26Zm-135.76-148.54c1.09,.03,2.14,.62,2.9,1.62l118.86,156.73c.79,1.04,1,2.15,.58,3.07-.22,.47-.65,1.09-1.89,1.08l-198.6-2.48h-.02c-1.23-.04-2.48-.78-3.2-1.9-.64-.99-.77-2.07-.35-2.88l79.79-154.25c.41-.8,1.17-.98,1.76-1,.05,0,.11,0,.16,0Z"/><g><path class="h" d="M384.3,273.61c.19,0,.38,0,.58,0l.95-.04c3.07-.12,6.66-1.71,6.34-8.68v-.06l-5.79-67.36c-.27-3.39-1.4-5.93-3.44-7.75-1.82-1.62-4.18-2.42-6.83-2.33l-2.84,.11c-2.55,.1-4.63,1.06-6.02,2.79-1.55,1.94-2.06,4.61-1.5,7.93l10.8,66.99c.99,7.59,6.17,8.34,7.74,8.39Z"/><path class="h" d="M399.11,290.24l-.14-1.11c-.41-3.33-1.84-6.12-4.14-8.05-2.22-1.87-5.08-2.8-8.26-2.66l-1.26,.05c-4.12,.16-6.42,2.01-7.61,3.53-1.62,2.06-2.26,4.83-1.87,8.02l.14,1.1c.39,3.14,1.72,5.81,3.86,7.71,1.4,1.24,3.81,2.75,7.42,2.86,.3,0,.62,0,.96,0l1.26-.05c4.15-.16,6.47-1.95,7.68-3.43,1.68-2.05,2.37-4.8,1.98-7.97Z"/></g></g></g></g></svg>