<?xml version="1.0" encoding="UTF-8"?>
<svg id="Layer_1" data-name="Layer 1" xmlns="http://www.w3.org/2000/svg" xmlns:xlink="http://www.w3.org/1999/xlink" viewBox="0 0 735.87 825.9">
  <defs>
    <style>
      .cls-1 {
        fill: url(#linear-gradient-2);
      }

      .cls-2 {
        font-size: 18px;
      }

      .cls-2, .cls-3, .cls-4 {
        fill: #fff;
      }

      .cls-2, .cls-4 {
        font-family: MyriadPro-Regular, 'Myriad Pro';
      }

      .cls-5 {
        opacity: .4;
      }

      .cls-6 {
        fill: url(#linear-gradient-4);
      }

      .cls-7 {
        fill: red;
      }

      .cls-8 {
        fill: url(#linear-gradient-3);
      }

      .cls-9 {
        fill: url(#linear-gradient-5);
      }

      .cls-3 {
        stroke: #292929;
        stroke-width: 3px;
      }

      .cls-3, .cls-10 {
        stroke-miterlimit: 10;
      }

      .cls-11 {
        fill: #f4f2f2;
      }

      .cls-12 {
        fill: url(#linear-gradient-8);
      }

      .cls-13 {
        fill: url(#linear-gradient-7);
      }

      .cls-14 {
        fill: url(#linear-gradient-6);
      }

      .cls-10 {
        fill: none;
        stroke: #0a0a0a;
      }

      .cls-4 {
        font-size: 16.16px;
      }

      .cls-15 {
        fill: #292929;
      }

      .cls-16 {
        fill: url(#linear-gradient);
      }
    </style>
    <linearGradient id="linear-gradient" x1="437.92" y1="21.77" x2="505.04" y2="21.77" gradientUnits="userSpaceOnUse">
      <stop offset="0" stop-color="#2962e8"/>
      <stop offset="1" stop-color="#d4292f"/>
    </linearGradient>
    <linearGradient id="linear-gradient-2" x1="549.85" y1="117.57" x2="584.81" y2="117.57" gradientTransform="translate(1117.82 247.62) rotate(-180)" xlink:href="#linear-gradient"/>
    <linearGradient id="linear-gradient-3" x1="405.21" y1="-48.37" x2="461.86" y2="-48.37" gradientTransform="translate(0 49.62) scale(1 -1)" xlink:href="#linear-gradient"/>
    <linearGradient id="linear-gradient-4" x1="319.99" y1="140.88" x2="421.99" y2="140.88" gradientTransform="translate(0 265.03) scale(1 -1)" xlink:href="#linear-gradient"/>
    <linearGradient id="linear-gradient-5" x1="347.41" y1="297.95" x2="424.69" y2="297.95" gradientTransform="translate(51.41 -41.78) rotate(11.45) scale(1 .77)" xlink:href="#linear-gradient"/>
    <linearGradient id="linear-gradient-6" x1="363.32" y1="343.19" x2="427.93" y2="343.19" gradientTransform="translate(775.44) rotate(-180) scale(1 -1)" xlink:href="#linear-gradient"/>
    <linearGradient id="linear-gradient-7" x1="171.71" y1="496.4" x2="258.55" y2="496.4" gradientTransform="translate(468.93) rotate(-180) scale(1 -1)" xlink:href="#linear-gradient"/>
    <linearGradient id="linear-gradient-8" x1="247.52" y1="670.57" x2="312.51" y2="670.57" gradientTransform="translate(373.79 21.35) rotate(-180) scale(1 -1)" xlink:href="#linear-gradient"/>
  </defs>
  <polygon class="cls-11" points="280.3 405.33 299.57 394.56 311.48 377.84 332.6 349.21 341.81 327.1 341.81 319.16 335.01 306.97 329.62 304 331.46 293.37 334.01 285.07 332.17 279.19 333.17 263.46 336.85 249.85 355.13 222.55 357.97 211.3 356.69 206.2 357.97 198.26 361.09 192.03 385.54 167.51 390 156.59 398.08 155.18 408.99 146.19 449.1 126.77 469.09 109.96 480.63 88.7 493.61 61.63 502.11 36.69 509.48 10.04 519.12 7.07 530.6 2.81 537.69 1.68 536.69 7.49 539.81 19.06 551.29 30.02 565.15 41.65 580.77 45.48 598.91 40.7 605.15 43.63 610.11 37.4 620.88 42.73 630.94 42.73 642.28 33.32 644.13 30.02 648.66 40.7 647.53 45.48 648.66 47.89 654.9 48.03 663.26 50.58 671.22 46.61 679.98 50.29 683.67 57.94 690.76 59.51 695.72 67.02 699.97 69.38 697.13 76.52 701.81 84.45 700.54 90.69 704.79 101.04 703.37 128.11 701.24 130.8 707.76 135.33 704.65 150.31 707.76 159.29 713.57 167.79 711.17 174.31 717.54 185.93 734.41 197.27 725.2 206.34 724.49 214 727.61 220.8 722.5 222.78 692.74 218.67 667.94 218.39 651.64 221.79 647.95 221.93 647.39 223.63 651.07 236.96 650.22 239.37 612.94 248.86 613.8 261.48 608.69 264.74 608.13 275.79 615.07 278.34 619.18 281.6 618.47 286.7 614.08 292.37 615.21 299.04 608.69 303.15 586.3 308.81 572.41 320.58 540.66 343.11 532.58 360.12 526.77 367.07 518.41 364.52 517.13 360.26 475.89 365.51 466.77 368.34 453.64 365.65 445.56 372.74 433.65 374.86 410.98 391.02 384.47 411.43 384.47 556.7 232.82 557.84 233.1 690.36 211.7 700 202.2 703.4 183.64 716.58 181.37 728.34 185.34 747.76 186.47 786.17 186.47 801.62 6.9 801.33 3.35 802.61 6.33 776.53 15.12 755.27 26.88 750.59 34.96 731.46 38.5 720.55 43.75 715.44 43.75 711.76 42.33 709.49 50.59 692.34 58.06 681.54 54.38 674.26 61.27 666.55 76.06 650.53 102.14 623.46 103.98 603.9 104.13 590.72 109.8 576.97 117.35 562.7 121.4 546.07 126.74 539.2 132.08 536.25 134.83 533.87 144.66 530.39 164.13 514.95 169.04 492.41 177.35 473.13 190.2 452.72 200.98 448.94 228 444.59 259.56 427.78 271.65 411.9 280.3 405.33"/>
  <path class="cls-15" d="M0,825.9l5.28-50.1c3.4-5.5,4.52-12.2,7.11-17.99,1.81-4.06,4.42-4.36,5.89-8.15,10.31,3.29,8.22-3.41,10.71-9.35.9-2.16,3.4-3.26,4.04-5.29.9-2.81,1.64-11.66,2.78-14.01,1.64-3.38,7.63-3.68,6.56-8.96-.15-.72-2.04-.65-2.1-1.23-.29-2.46,2.73-5.24,3.82-7.65,1-2.21,1.23-4.75,2.42-6.99,1.89-3.54,7.73-9.9,8.91-13.95,1.21-4.12-4.79,1.8-6.03.54,2.24-11.7,12.49-17.61,19.66-25.42,3.19-3.48,5.39-7.91,9.04-11.7,10.23-10.62,22.77-15.15,24.61-32.42.62-5.8-.97-9.9-.98-14.72,0-9.97,11.27-27.94,14.25-38.1,2.14-7.29-.39-12.39,6.47-18.63,2.19-1.99,5.67-2.46,7.61-4.72,1.13-1.31,1.8-4.42,2.14-4.64.84-.55,6.76-.52,10.26-2.46,2.06-1.14,17.28-13.2,18.27-14.71,4.09-6.2,4.41-15.8,6.88-22.44.88-2.36,2.81-4.11,3.75-6.66,5.04-13.73,4.51-15.56,13.53-27.11,1.52-1.94,1.82-4.99,3.64-6.77,6.83-6.71,27.6-5.65,37.04-8.75,3.98-1.3,26.81-12.06,29.77-14.27,5.48-4.08,12.83-16.52,19.3-22.11,6.02-5.2,18.38-8.26,24.21-13.76,3.35-3.16,4.35-7.42,7.02-10.63,8.55-10.28,15.07-19.06,22.54-30.31,4.71-7.09,14.34-26.11,11.85-34.36-.17-.55-5.54-9.03-6.06-9.57-3.51-3.65-6.68-.69-5.38-8.68,1.14-7.08,3.64-8.88,2.74-18.22-.73-7.59-.41-5.48.08-12.8.22-3.26-1.26-6.38-1.06-8.45.1-1.06,8.06-16.95,9.25-18.92,5.14-8.6,18.94-21,17.02-32.87-.14-.86-2.27-.29-2.17-2.25.11-2.2,1.66-3.31,1.83-4.44.29-1.88-1.68-4.51-.23-6.73,8.33-9.73,22.15-19.5,28.62-30.35,1.28-2.15,2.38-8.31,4.16-9.41s4.72.03,7.06-1.05c1.25-.58,3.2-3.64,5.36-4.97,23.19-14.29,54.32-20.73,70.09-46.08,15.01-24.12,24.28-52.67,33.15-79.62,1.26-3.83,2.05-13.67,4.79-16.16.4-.36,8.6-2.73,10.15-3.1,1.75-.42,3.9.31,5.8-.27,1.79-.54,2.6-3.24,4.43-3.82,2.71-.86,6.48.12,9.37-.21.56,2.89-2.26,4.89-1.85,7.69.1.71,4.73,12.67,5.17,13.21.9,1.1,3.84,2.07,5.27,3.48,6.79,6.7,12.95,14.57,22.42,17.75,13.82,4.65,17.01-2.58,28.09-2.86,2.69-.07,4.87,2.48,6.8,2.16.86-.14,2.13-5.42,5.16-5.4,1.72,0,5.46,4.1,8.51,4.85,8.94,2.2,16.1-.98,21.71-8.08,1.63-2.06.8-5.63,5.02-4.24.56.18,3.95,10.67,4.05,11.55.21,1.79-1.1,5.38-.42,6.47.73,1.19,5.97-.17,7.41.06,2.45.4,4.12,2.59,7.1,2.14,2.8-.42,3.57-4.13,5.91-4.08.62.01,11.4,2.7,12.09,2.99,1.27.53.53,1.93.71,2.12-2.28.75,2.1,6.18,2.44,6.44,2.29,1.69,5.06.36,6.67,1.47.75.52,2.54,6.08,4.31,7.65,1.38,1.22,5.6,2.09,5.81,3.12.7,3.47-3.14,5.68-3.06,8.35.1,3.7,5.58,6.28,5.95,7.55.85,2.87-3.16,4.03-2.85,6.04.16,1.04,2.09,2.44,2.51,3.89,2.94,10.14.68,16.92.35,26.04-.09,2.37,1.3,6.22,1,7.25-.51,1.74-3.19.96-2.97,2.75,4.73-2.04,7.13,6.78,6.95,10.12-.11,1.99-3.39,7.27-3.76,9.79-.55,3.68,1.74,4.88,3.26,7.77.72,1.37.54,3.32,1.56,4.73.92,1.29,3.32,1.48,3.93,3.28,1.45,4.31-1.61,7.4-1.4,8.9.07.52,4.5,8.83,4.86,9.2,1.19,1.25,5.65,2.5,7.73,4.06,1.41,1.06,9.9,7.9,10.09,8.55,1.28,4.4-9.44,9.25-9.89,10.6-2.22,6.66,4.28,12.89,2.79,15.14-1.7,2.57-16.25,1.55-19.45,1.04-13.66-2.16-27.21-5.77-41.44-4.13-6.28.72-12.38,5.09-19.64,3.19-.78,3.66,6.84,15.5,4.04,17.48-4.48,2.05-35.96,7.59-37.2,9.12-.98,1.2,1.25,11.74-1.34,14.49-.95,1.01-3.68,1.15-3.8,1.33-.27.39,1.17,7.86.01,9.52,2.93-3.5,10.95,5.13,11.13,6.88.53,5.23-5.6,9.81-5.94,11.83-.31,1.81,3.35,4.62.59,7.52-4.67,4.89-18.07,5.76-24.37,7.75-4.95,1.57-8.67,5.23-13.67,5.23,3.64-5.31,11.03-7.63,16.87-9.28,2.23-.63,4.84-.02,7.37-.73,1.58-.44,11.64-4.33,12.04-4.86.2-.27-1.52-3.92-1.01-6.81.7-4.02,6.14-5.41,4.85-9.34-1.72-5.23-7.88-3.86-9.69-5.21-1.46-1.08-.79-11.99-.02-13.94.91-2.34,3.59-1.15,3.93-2.41.75-2.79-1.02-12.28.06-14.06,1-1.65,31.88-6.98,36.17-9.13,3.02-2.33-1.72-8.09-2.06-11.66-1.01-10.62,5.63-5.92,12.57-6.97,6.56-1,8.4-3.61,17.08-2.98,6.86.5,13.74-.34,19.57.53,9.77,1.46,20.23,6.29,30.45,3.57-3.83-3.45-4.1-10.6-1.8-15.13,1.91-3.75,7.48-2.49,8.86-8.16-3.66-1.44-6.54-4.89-9.76-7.25-1.9-1.4-5.95-2.45-7.11-3.66-.75-.78-7.88-13.96-7.33-14.55.2-.21,2.18.57,3.09-.64,2.87-3.84-1.93-4.51-3.58-6.79-1.88-2.61-2.78-8.22-5.57-11.14.9-6.28,5.67-12.3,3.05-18.84-.6-1.5-5.33-.96-6.01-3.54-.5-1.89,1.64-3.36,1.93-5.2,1.6-10.25,2.54-20.49-.16-30.48-.52-1.93-3.55-3.3-3.77-4.59-.33-1.95,3.13-2.94,2.83-4.96s-4.66-5.14-4.92-7.64c-.36-3.51,3.02-6.99,3.02-7.4-.01-1.02-3.95-2.28-4.95-3.25-1.48-1.44-3.57-6-4.38-6.52-1.52-.99-3.78-.19-6.3-2.39-1.97-1.72-3.17-6.14-4.96-7.5-.44-.33-6.91-2.91-7.3-2.95-1.82-.19-3.65,3.81-6.92,4.04s-5.89-2.64-8.13-2.84c-2.08-.19-3.57,1.54-6.4.22-4.85-2.25-1.92-6.33-2.24-9.3-.11-1.03-2.54-6.7-3.33-7.12-4.54,9.02-14.36,13.04-23.73,11.17-3.33-.67-9.06-5.12-10.47-4.89-.76.13-1.98,5.31-5.09,5.36-1.69.03-3.46-2.1-6.03-2.14-4.64-.08-11.44,3.96-16.18,4.32-16.46,1.23-26.55-10.79-37.27-21.26-1.31-1.28-3.38-1.47-4.27-2.39-1.95-2-6.05-16.35-5.31-19.86-4.55-1.12-6.93,2.83-10.82,4-3.52,1.06-9.36,1.36-13.18,2.57-6.08,16.69-9.78,36.06-16.14,52.46-5.04,13-22.45,47.4-31.78,56.15-15.69,14.72-41.92,21.97-59.82,33.02-2.16,1.33-4.11,4.39-5.36,4.97-2.34,1.08-5.2-.09-7.06,1.05-1.4.86-3.06,7.03-4.37,9.18-5.91,9.73-16.27,17.77-23.79,26.92-.89,1.08-3.04,1.63-3.62,2.61-1.21,2.07.46,3.88.26,5.7-.13,1.19-1.4,2.36-1.44,3.43-.14,3.8,1.6,7.77.47,12.34-2.69,10.93-16.86,24.2-22.15,36.07-3.13,7.03-1.49,7.73-1.75,13.96-.12,2.9-1.76,5.72-1.87,8.52-.15,4.02,2.04,10.76,1.79,14.73-.2,3.14-4.32,9.89-3.92,11.71.27,1.24,4.01,2.11,5.54,3.71.92.96,6.79,10.58,7.06,11.73,1.44,6.28-5.32,24.09-8.84,30-7.45,12.5-17.39,25.9-26.55,36.74-2.6,3.08-3.87,7.38-7.17,10.48-6.03,5.67-17.3,8.73-24.04,13.94-7.67,5.93-11.71,14.52-17.66,20.65-2.19,2.26-27.79,14.66-32.01,16.15-9.03,3.2-30.44,2.41-36.46,8.29-1.82,1.78-2.12,4.83-3.64,6.77-7.94,10.14-5.87,7.93-10.5,19.69-1.84,4.68-4.76,9.46-6.27,13.55-2.49,6.76-3.28,16.73-7.39,22.96-.89,1.35-19.33,15.56-20.91,16.17-2.68,1.04-6.75.41-7.64.99-.3.2-1,3.34-2.13,4.65-1.9,2.2-5.36,2.78-7.61,4.71-6.11,5.25-3.7,11.18-6.06,18.01-3.25,9.42-13.69,27.28-13.67,36.6,0,4.7,1.5,8.3.99,13.67-1.88,19.7-12.65,22.08-24.09,34.01-4.55,4.74-7.1,9.18-11.05,13.82-1.61,1.9-6.12,4.73-6.67,5.79-1.07,2.07,2.09,3.19,1.51,5.62-.33,1.39-3.64,3.77-4.78,5.69-4.91,8.31-13.37,22.88-16.86,31.1-.43,1.01,4.02,4.7-.42,10.08-4.03,4.89-5.07,3.48-7.02,11.7-2.11,8.9-1.26,4.68-4.53,11.14-1.25,2.47-1.06,6.32-2.71,8.81-2.8,4.23-8.2,2.96-11.37,5-1.98,1.27-9.83,20.75-10.45,23.99-1.32,6.8-.98,15.53-2.24,22.54l1-2.11h179.42c.13-20.13-.27-40.77-3.3-60.66-1.39-9.13-3.26-6.19-.8-16.26,1.31-5.34-1.07-4.75,4.19-9.38,9.55-8.41,18.3-11.54,29.14-16,5.47-2.25,11.79-5.71,17.14-8.47v-133.03h151.2v-146.28c9-1.99,13.74-9.49,20.69-14.81,6.7-5.12,15.02-11.72,21.93-16.15,1.46-.93,4.18-1.05,5.1-1.81,1.07-.88.61-3.11,1.59-3.85,1.79-1.34,7.96.1,11.21-.96,3.19-1.04,7.36-7.12,10.76-7.84,4.83-1.03,11.89,3.39,15.84,2.98,1.84-.19,3.91-2.54,6.36-2.97,10.39-1.82,17.03-1.94,27.9-2.27,5.85-.18,10.39-5.26,15.2-1.11,2.46,2.13,2.81,6.33,6.88,5.37.64-.15,7.36-9.85,7.92-10.97,1.87-3.69,1.27-6.05,2.36-9.17,2.66-7.55,27.56-20.58,34.68-26.07,6.58-5.08,3.65,1.8-1.03,5.28-4.21,3.13-9.92,4.24-14.39,7.13-1.68,1.09-13.87,10.88-14.81,11.98-2.2,2.56-2.57,9.34-5.17,13.64-.75,1.24-7.57,10.36-8.17,10.62-1.51.67-10.39-1.06-10.78-1.48-.62-.67.75-5.18-.56-5.27-10.09,4.46-19.87,1.65-30.18,3.24-1.66.26-9.69,1.89-10.94,2.28-1.47.46-2.16,2.68-4.27,3.01-3.49.54-12.46-4.1-16.82-3.03-2.66.66-5.78,5.28-8.83,6.71-3.85,1.81-9.17.93-11.11,2.14-13.92,8.72-26,20.58-39.36,30.64-1.54,1.16-9.01,4.31-9.01,5.37v146.81h-152.21v133.56c-6.78.31-12.81,5.88-18.31,7.77-2.99,1.02-5.89.65-9.14,2.04-2.04.87-20.88,14.39-21.41,15.64-1.09,2.57-.99,7.99-2.58,11.09,6.31,23.57,5.6,49.22,6.1,73.7l-179.83-.06c-1.22.16-.4,1.61-.6,2.17-2.45,6.89-8.06,21.2-8.06,21.2ZM62.49,669.02c-2.58-.61-1.76.74-2.6,1.99-1.64,2.44-3.43,5.62-3.95,8.58,1.44-4.6,6.69-5.98,6.56-10.57Z"/>
  <line class="cls-3" x1="582.31" y1="311.32" x2="571.71" y2="321.56"/>
  <circle class="cls-7" cx="512.36" cy="11.21" r="5.34"/>
  <circle class="cls-7" cx="467.2" cy="117.01" r="5.34"/>
  <circle class="cls-7" cx="430.02" cy="139.63" r="5.34"/>
  <circle class="cls-7" cx="533.01" cy="150.31" r="5.34"/>
  <circle class="cls-7" cx="430.02" cy="250.7" r="5.34"/>
  <circle class="cls-7" cx="205.04" cy="475.87" r="5.34"/>
  <circle class="cls-7" cx="341.2" cy="325.32" r="5.34"/>
  <circle class="cls-7" cx="55.93" cy="674.26" r="5.34"/>
  <g class="cls-5">
    <polyline class="cls-10" points="637.35 241.23 637.35 238.4 641.31 235 639.33 232.16 634.51 229.61 634.51 222.24 637.91 216.29 634.51 214.02 631.11 215.44 627.99 217.42 625.72 214.02 622.32 214.02 619.2 216.29 616.09 217.42 616.09 214.02 611.55 212.6 608.15 202.68 604.75 199.85 601.63 193.33 600.21 187.66 602.76 182.84 607.02 176.6 610.13 171.22 613.25 165.83 616.94 162.15 622.32 162.15 629.98 162.15 636.78 162.15 643.02 158.46 650.39 158.46 653.22 155.65 650.67 151.94 647.27 146.19 643.02 141 640.18 139.63 634.51 138.33 632.81 135.53 633.09 131.81 635.93 130.11 639.05 126.77 641.6 124.44 641.88 122.35 639.05 120.76 635.36 120.76 629.69 120.76 626.72 118.21 624.59 115.09 619.77 115.09 618.07 117.01 615.8 122.35 613.82 124.44 610.98 126.77 609.28 130.4 609.85 134.29 609 137.48 605.31 138.05 602.2 136.92 600.21 139.63 597.09 135.53 594.26 132.66 597.94 126.77 600.21 122.35 602.48 118.78 605.31 115.09 607.3 111.69 606.45 104.32 605.03 99.22 601.35 95.81 599.93 93.26 604.18 89.29 605.6 84.48 608.15 80.51 610.42 76.54 612.12 72.57 614.67 70.59 614.95 66.05 614.95 60.95 609.85 58.96 604.75 58.96 603.9 62.37 597.38 62.65 595.96 64.92 594.26 67.18 591.43 69.74 588.59 67.18 585.47 64.63 581.79 69.45 577.82 72 567.45 71.44 562.51 62.93 558.54 63.22 556.28 65.77 546.07 66.33 544.65 76.82 541.24 80.79 538.35 81.64 535.58 81.64 533.01 78.24 530.76 74.55 527.67 72.57 524.81 70.87 519.43 70.87 517.16 70.02 517.16 58.96 514.04 58.96 511.2 56.41 508.07 55.28 505.82 55.28 505.82 53.86 502.7 53.86 497.63 53.86"/>
    <line class="cls-10" x1="606.12" y1="41.53" x2="606.02" y2="58.96"/>
    <path class="cls-10" d="M600.81,190.05l-4.42-2.44-5.1,5.1-15.86-19.13-3.98,1.28-5.81.57-1.84-1.84v-9.35l-5.24-2.98-8.22,4.39-3.69,6.09-2.28-.12-3.12-.16v23.39l-7.07,9.78h-3.97v2.41l4.11,9.21-6.64-.57-13.63,11.06,5.1,8.22-14.6,11.91s-8.36,1.13-9.21,1.56-4.82,3.26-4.82,3.26l-5.39,2.54-4.39,1.43-4.82,1.28-2.69,6.66-5.39,3.12h-6.8s1.7-3.54-1.13-3.4-4.25.14-4.25.14l-2.98-1.98.71-5.41,1.56-1.25-7.09-8.36v-5.2l3.97-1.04,5.67,1.04h3.4l.43-2.46-.99-4.39-2.13-4.11-.57-6.66-.57-5.95.28-10.2,1.42-3.54,2.13-4.68,1.7-3.26,1.13-3.26-1.28-3.12-2.13-1.7-2.13-2.41,1.28-3.26,1.42-8.22,1.7-2.55,4.25-3.26-.14-10.49,1.13-3.12,1.98-1.36,9.07,3.06,3.97,2.41.57.85,1.13-1.7,2.41-2.2,1.7-1.06,1.13-11.48,2.41-2.83,4.11.72-.57,3.98,4.54,2.57,1.7,2.76,1.42,2.15,2.83.77,1.13-2.62h5.39l1.28-10.34h1.28l4.39,2.41,4.62,2.29,4.73,4.51,1.42,7.4.14,2.66,7.72.14v6.94l4.61,3.69,1.68,1.31"/>
    <polyline class="cls-10" points="232.93 644.41 227.64 644.41 220.27 643.28 213.09 643.28 211.77 644.41 210.07 645.35 206.1 647.43 202.13 646.3 189.09 639.69 161.69 637.42 156.96 644.79 149.41 644.41 133.91 636.09 129.56 636.09 126.35 636.09 125.22 637.98 118.79 638.55 114.26 636.09 112.18 638.17 110.1 639.5 106.51 639.69 103.11 633.26 101.78 630.61 98.76 629.29"/>
    <polyline class="cls-10" points="233.5 442.2 238.41 453.35 242 461.86 254.85 464.13 260.52 468.09 265.44 466.2 290.19 465.64 291.89 468.09 299.26 468.09 299.26 466.2 307.01 466.2 314.38 476.79 321.37 476.79 321.37 475.09 323.83 474.9 334.6 488.69 336.87 489.83 345.56 489.83 350.29 486.43 357.66 493.42 372.78 516.09 383.03 516.09 384.47 516.09"/>
    <polyline class="cls-10" points="385.15 437.29 377.78 433.89 370.04 418.96 361.15 412.44 361.15 407.06 362.67 405.35 362.67 403.28 357.75 400.25 355.86 398.36 357.56 394.02 361.91 394.77 362.48 389.86 363.42 389.86 363.99 384.19 361.34 381.54 360.4 373.8 354.54 369.26 351.52 369.26 348.3 373.04 344.15 372.28 343.2 370.58 340.93 370.77 340.93 373.98 335.64 372.47 329.97 373.8 327.71 373.8 326.19 366.8 323.55 363.21"/>
    <polyline class="cls-10" points="487.77 362.65 484.74 357.73 486.26 347.91 487.77 343.37 490.04 341.48 484.74 339.97 481.72 332.94 481.72 328.52 485.88 321.56 481.72 321.56 478.32 316.44 475.3 315.38 472.65 316.44 466.98 318.05 466.98 321.56 462.82 321.56 461.31 325.32 458.29 321.56 455.26 319.98 451.11 321.56 451.11 328.52 447.85 328.52 447.85 332.94 447.85 339.01 445.06 332.94 438.67 332.94 435.35 330.65 432.96 325.32 428.05 319.98 430.02 315.38 435.35 311.32 438.67 309.73 435.35 307.09 432.54 304.54 431.97 300 429.85 300 427.01 300 428 296.6 430.27 294.76 429.14 291.78 427.01 289.65 427.01 282.43 427.01 277.75 427.86 275.62 432.54 274.2 434.81 272.36 438.63 272.36 440.19 270.38 443.17 268.82 446.85 267.83 450.4 267.83 450.82 265.56 453.01 261.41"/>
    <path class="cls-10" d="M331.63,292.38l2.65,3.59,3.59-.94,3.33-6.24,2.34,1.51,1.13,2.08,2.64.76,2.08-2.83,3.02-1.51h2.65v4.35l1.89,1.51,2.46-1.32,1.51-.94h3.21l3.02,2.08,1.73-3.78,2.43-4.54,6.04-1.32,1.71,2.08,1.32,4.91v2.83l3.97-3.21,4.35-2.27,5.29,1.23,3.02,1.04,4.16.19,1.32-1.23,2.08-2.36,3.4-1.7,1.32,1.7,3.78,2.36h2.46l1.89-3.69v-4.35c0-.57,2.83-3.4,2.83-3.4l2.08-1.51,3.21-1.32,2.45-.31"/>
    <polyline class="cls-10" points="457.59 208.82 452.44 208.42 449.51 206.06 443.46 199.72 441.19 199.25 440.34 201.14 432.69 201.14 430.02 196.32 428.34 192.17 425.98 189.33 420.31 186.02 416.91 181.39 414.64 178.37 411.81 180.45 413.23 185.08 412.47 192.45 410.96 195.47 406.9 196.61 400.47 202.09 398.2 207.19 394.52 208.82 391.4 206.62 387.15 199.82 384.6 195.85 372.12 196.42 367.94 185.16"/>
    <polyline class="cls-10" points="469.17 154.04 468.68 149.96 470.66 147.55 470.28 140.27 472.08 138.72 472.08 135.04 467.64 135.04 466.41 134.29 461.5 132.96 458.57 132.2 459.32 120.67"/>
    <path class="cls-10" d="M537.12,81.86l-.39,2.48s.85,2.69.39,2.98-7.05,0-7.05,0l-1.35,6.17,2.41,1.2,1.28,7.16-2.41,2.76-2.55,1.84h-6.8l-.5-7.37-1.77-1.42-4.61-.07-1.63,2.62-.57,6.24,7.51,6.09.64,3.05-2.83,1.7.35,3.4h2.83l-1.28,5.6-1.98.47.07,11.01-1.43.34-.26,2.44"/>
  </g>
  <polygon class="cls-16" points="496.23 30.89 495.48 30.89 437.92 32.21 437.92 12.65 489.16 11.49 505.04 11.32 496.24 15.59 496.24 29.28 496.23 30.89"/>
  <polygon class="cls-1" points="533.01 119.38 533.46 119.38 567.97 118.26 567.97 134.76 537.25 135.74 533.01 141.84 533.01 132.28 533.01 120.74 533.01 119.38"/>
  <polygon class="cls-8" points="458.77 87.24 458.08 87.24 405.21 86.03 405.21 103.84 452.28 104.9 461.86 109.95 458.78 101.17 458.78 88.7 458.77 87.24"/>
  <polygon class="cls-6" points="414.23 113.07 413.02 113.07 319.99 111.67 319.99 132.28 402.81 133.51 421.99 136.63 414.25 129.19 414.25 114.76 414.23 113.07"/>
  <polygon class="cls-9" points="418.71 277.91 417.75 277.71 343.91 264.11 347.8 244.91 413.53 257.04 424.68 254.67 421.77 262.9 419.04 276.34 418.71 277.91"/>
  <polygon class="cls-14" points="349.65 355.16 350.45 355.16 412.12 356.52 412.12 336.6 357.22 335.41 347.51 329.87 349.64 339.59 349.64 353.53 349.65 355.16"/>
  <polygon class="cls-13" points="214.08 509.04 215.15 509.04 297.21 510.43 297.21 490.09 224.15 488.87 210.38 482.37 214.06 493.14 214.06 507.38 214.08 509.04"/>
  <polygon class="cls-12" points="65.88 702.91 66.66 702.91 126.26 704.25 126.26 684.6 73.2 683.43 61.27 679.6 65.87 687.55 65.87 701.3 65.88 702.91"/>
  <text class="cls-2" transform="translate(440.62 27.25) rotate(-2.14)"><tspan x="0" y="0">Tanger</tspan></text>
  <text class="cls-2" transform="translate(538.07 132.32)"><tspan x="0" y="0">Fez</tspan></text>
  <text class="cls-2" transform="translate(407.59 99.7) rotate(1.79)"><tspan x="0" y="0">Rabat</tspan></text>
  <text class="cls-2" transform="translate(323.46 127.96)"><tspan x="0" y="0">Casablanca</tspan></text>
  <text class="cls-2" transform="translate(71.54 699.39)"><tspan x="0" y="0">Dakhla</tspan></text>
  <text class="cls-2" transform="translate(219.84 503.1) rotate(1.61)"><tspan x="0" y="0">Laâyoune</tspan></text>
  <text class="cls-2" transform="translate(357.07 350.45) rotate(2.32)"><tspan x="0" y="0">Agadir</tspan></text>
  <text class="cls-4" transform="translate(346.56 259.72) rotate(10.5)"><tspan x="0" y="0">Marrakech</tspan></text>
</svg>