<?xml version="1.0" encoding="UTF-8"?> <svg xmlns="http://www.w3.org/2000/svg" id="Calque_2" data-name="Calque 2" viewBox="0 0 826.7 761.49"><defs><style> .cls-1, .cls-2 { fill: #569c33; } .cls-3 { fill: #f1f1f1; opacity: .15; } .cls-4 { fill: #84bd49; } .cls-5 { fill: #373937; } .cls-6 { fill: #d7e8c5; } .cls-2 { opacity: .3; } .cls-7 { fill: #695a41; } .cls-8 { fill: #5a5d5b; } </style></defs><g id="Calque_1-2" data-name="Calque 1"><g><path class="cls-3" d="m97.02,761.49h54.22V138.93h187.2v68.65h-120.09v476.13h559.52V207.58h-120.16v-68.65h168.98v-54.22h-140.93v-23h-96.76v23h-181.05v-23h-96.76v23h-159.95V18.23h-54.22v66.48h-58.58v54.22h58.58v622.56ZM616.26,207.58h-236.35v-68.65h236.35v68.65Z"></path><polyline class="cls-1" points="739.44 665.48 179.92 665.48 179.92 189.35 739.44 189.35"></polyline><path class="cls-4" d="m179.92,230.32v395.19c22.29,0,40.39,17.81,40.92,39.98h477.68c.53-22.16,18.63-39.98,40.92-39.98V230.32c-22.63,0-40.97-18.34-40.97-40.97H220.89c0,22.62-18.34,40.97-40.97,40.97Z"></path><rect class="cls-5" x="58.58" width="54.22" height="743.25"></rect><rect class="cls-7" y="66.48" width="788.26" height="54.22"></rect><path class="cls-6" d="m732.73,207.2c0,5.23-4.24,9.47-9.47,9.47s-9.47-4.24-9.47-9.47,4.24-9.47,9.47-9.47,9.47,4.24,9.47,9.47Z"></path><path class="cls-6" d="m732.73,646.61c0,5.23-4.24,9.46-9.47,9.46s-9.47-4.24-9.47-9.46,4.24-9.47,9.47-9.47,9.47,4.23,9.47,9.47Z"></path><path class="cls-6" d="m203.22,207.2c0,5.23-4.24,9.47-9.47,9.47s-9.47-4.24-9.47-9.47,4.24-9.47,9.47-9.47,9.47,4.24,9.47,9.47Z"></path><path class="cls-6" d="m203.22,646.61c0,5.23-4.24,9.46-9.47,9.46s-9.47-4.24-9.47-9.46,4.24-9.47,9.47-9.47,9.47,4.23,9.47,9.47Z"></path><polygon class="cls-2" points="179.92 189.35 179.92 665.48 739.44 189.35 179.92 189.35"></polygon><rect class="cls-5" x="272.76" y="43.47" width="96.76" height="50.11"></rect><rect class="cls-5" x="300.01" y="62.63" width="41.46" height="149.01"></rect><rect class="cls-1" x="282.48" y="200.31" width="76.52" height="22.66"></rect><rect class="cls-5" x="550.57" y="43.47" width="96.76" height="50.11"></rect><rect class="cls-5" x="577.82" y="62.63" width="41.47" height="149.01"></rect><rect class="cls-1" x="560.29" y="200.31" width="76.53" height="22.66"></rect><rect class="cls-8" y="66.48" width="788.26" height="54.22"></rect><g><path class="cls-6" d="m455.18,325.32c0-36.99-16.98-66.99-37.93-66.99s-37.94,29.99-37.94,66.99c0,29.45,10.78,54.4,25.74,63.38v197.99c0,5.39,4.4,9.8,9.79,9.8h4.83c5.39,0,9.8-4.4,9.8-9.8v-197.99c14.96-8.99,25.73-33.93,25.73-63.38Z"></path><path class="cls-6" d="m539.85,263.4h-6.57v77.12c0,2.53-2.06,4.59-4.59,4.59s-4.58-2.07-4.58-4.59v-77.12h-10.85v77.12c0,2.53-2.06,4.59-4.59,4.59s-4.59-2.07-4.59-4.59v-77.12h-10.84v77.12c0,2.53-2.06,4.59-4.59,4.59s-4.59-2.07-4.59-4.59v-77.12h-6.23c-2.84,0-5.17,2.32-5.17,5.17v100.55c0,12.38,10.05,22.5,22.4,22.65v189.87c0,5.39,4.4,9.8,9.79,9.8h4.83c5.39,0,9.79-4.41,9.79-9.8v-189.84h2.56c12.48,0,22.67-10.2,22.67-22.68v-100.89c0-2.66-2.18-4.83-4.83-4.83Z"></path></g></g></g></svg> 