<?xml version="1.0" encoding="UTF-8"?><svg xmlns="http://www.w3.org/2000/svg" viewBox="0 0 615.73 720.99"><defs><style>.d{fill:#569c33;}.e{fill:#84bd49;}.f{fill:#373937;}.g{fill:#f1f1f1;}.h{fill:#5a5d5b;}</style></defs><g id="a"/><g id="b"><g id="c"><g><g><rect class="e" x="442.84" y="119.9" width="60.64" height="55.92" transform="translate(98.31 472.25) rotate(-58.23)"/><rect class="d" x="471.77" y="103.78" width="22.73" height="55.92" transform="translate(116.73 473.11) rotate(-58.23)"/><rect class="f" x="470.39" y="64.79" width="46.46" height="99.79" rx="11.19" ry="11.19" transform="translate(136.2 473.94) rotate(-58.23)"/></g><g><rect class="e" x="114.63" y="117.54" width="55.92" height="60.64" transform="translate(-56.49 97.24) rotate(-31.77)"/><rect class="d" x="104.65" y="120.38" width="55.92" height="22.73" transform="translate(-49.5 89.57) rotate(-31.77)"/><rect class="f" x="72.23" y="91.46" width="99.79" height="46.46" rx="11.19" ry="11.19" transform="translate(-42.09 81.5) rotate(-31.77)"/></g><rect class="e" x="264.41" y="49.6" width="86.98" height="94.32"/><rect class="d" x="264.41" y="49.6" width="86.98" height="35.36"/><circle class="f" cx="307.86" cy="413.12" r="307.86"/><circle class="h" cx="307.86" cy="412.94" r="287.63"/><circle class="g" cx="307.86" cy="412.54" r="268.62" transform="translate(-201.54 338.52) rotate(-45)"/><g><path class="e" d="M482.79,519.88c.44-5.77,5.82-9.75,10.47-7.23,9.92,5.37,19.66,11.09,29.34,16.89,3.18,1.91,3.75,6.31,1.82,9.43-1.97,3.17-5.99,4.32-9.59,2.32-7.68-4.25-15.24-8.7-22.85-13.08-1.78-1.02-3.77-1.83-5.25-3.18-1.57-1.44-2.65-3.41-3.94-5.16Z"/><path class="e" d="M314.97,640.73c0,5.13,.03,10.27-.01,15.4-.04,4.51-2.92,7.67-6.94,7.72-4.23,.05-7.3-3.14-7.31-7.76-.03-10.27-.02-20.54,.03-30.81,.02-4.82,2.82-7.83,7.13-7.84,4.29,0,7.03,2.99,7.08,7.88,.05,5.13,.01,10.27,.01,15.4h.02Z"/><path class="e" d="M534.94,420.72c-5.14,0-10.27,.05-15.41-.01-4.92-.06-7.81-2.75-7.79-7.14,.02-4.16,2.88-6.95,7.61-7,10.39-.1,20.78-.1,31.16-.02,4.47,.03,7.57,3.14,7.53,7.19-.04,4.08-3.1,6.9-7.69,6.95-5.14,.06-10.27,.01-15.41,.01v.03Z"/><path class="e" d="M209.44,597.22c-.25,.63-.66,2.17-1.42,3.52-5,8.82-10.05,17.61-15.15,26.38-2.3,3.96-6.37,5.26-9.85,3.3-3.79-2.13-4.89-6.19-2.57-10.28,5.11-9.02,10.28-18,15.51-26.96,2-3.42,5.38-4.82,8.71-3.63,3.09,1.1,4.8,3.33,4.77,7.68Z"/><path class="e" d="M414.95,589.2c.99,.81,3.5,2.01,4.72,4,5.37,8.75,10.42,17.69,15.48,26.62,2.4,4.24,1.46,8.35-2.12,10.45-3.77,2.21-7.75,.96-10.34-3.45-5.19-8.86-10.34-17.74-15.37-26.69-2.95-5.25,.32-10.97,7.63-10.93Z"/><path class="e" d="M80.82,420.64c-5.14,0-10.27,.05-15.41-.02-4.71-.06-7.55-2.74-7.55-6.97,0-4.2,2.87-7,7.57-7.05,10.27-.1,20.55-.11,30.82-.07,4.54,.02,7.72,2.99,7.77,6.96,.06,4.32-2.88,7.06-7.79,7.13-5.14,.07-10.27,.01-15.41,.01Z"/><path class="e" d="M97.91,542.26c-3.97-.28-6.24-1.89-7.25-5.08-1-3.15,.21-6.35,3.33-8.19,8.05-4.75,16.16-9.38,24.25-14.06,1.18-.68,2.36-1.38,3.59-1.99,3.76-1.86,7.8-.65,9.7,2.85,1.8,3.33,.73,7.33-2.82,9.45-6.35,3.8-12.81,7.44-19.22,11.15-2.56,1.48-5.09,3.04-7.71,4.41-1.38,.72-2.94,1.1-3.86,1.44Z"/><path class="e" d="M314.84,186.74c0,5.13,.03,10.26-.01,15.39-.04,4.48-2.88,7.54-7.03,7.67-3.7,.12-6.94-3.07-6.99-7.36-.11-10.48-.1-20.97,0-31.45,.04-4.28,3.18-7.32,7.05-7.27,4.16,.05,6.89,3.03,6.93,7.64,.03,5.13,0,10.26,0,15.39h.03Z"/><path class="e" d="M491.28,315.17c-3.97,0-6.32-1.49-7.4-4.68-1.14-3.36,0-6.53,3.29-8.5,6.76-4.03,13.62-7.9,20.44-11.83,2.37-1.37,4.71-2.81,7.13-4.07,3.66-1.91,7.63-.87,9.6,2.37,2.1,3.47,1.22,7.53-2.54,9.76-9.23,5.48-18.56,10.78-27.88,16.09-.95,.54-2.13,.7-2.64,.86Z"/><path class="e" d="M436.66,203.11c-.58,1.54-.89,2.88-1.55,4.04-5.06,8.91-10.13,17.81-15.32,26.64-2.48,4.22-6.46,5.37-10.12,3.24-3.5-2.04-4.43-6.04-2.1-10.14,5.13-9,10.27-17.99,15.62-26.86,2.94-4.89,8.27-5.32,11.56-1.11,.92,1.18,1.29,2.79,1.91,4.19Z"/><path class="e" d="M124.17,315.1c-.52-.2-1.86-.53-3-1.19-9-5.15-17.98-10.34-26.93-15.57-3.6-2.1-4.83-6.41-2.92-9.71,1.89-3.26,5.93-4.51,9.54-2.5,9.35,5.22,18.63,10.58,27.86,16.02,3.17,1.87,4.22,5.06,3.07,8.23-1.14,3.11-3.39,4.75-7.61,4.71Z"/><path class="e" d="M209.34,230.18c.07,3.92-1.76,6.52-5.01,7.46-3.24,.94-5.99-.05-7.68-2.88-5.54-9.29-11-18.63-16.32-28.04-2-3.53-.7-7.73,2.51-9.55,3.3-1.88,7.33-.98,9.47,2.58,5.51,9.17,10.82,18.46,16.15,27.74,.55,.96,.7,2.14,.88,2.7Z"/></g><circle class="e" cx="307.86" cy="413.61" r="77.23"/><circle class="d" cx="308.48" cy="412.54" r="20.91" transform="translate(-201.36 338.96) rotate(-45)"/><path class="h" d="M315.54,200.05c0-3.9-3.16-7.06-7.06-7.06h0c-3.9,0-7.06,3.16-7.06,7.06v211.68c0,3.9,3.16,7.06,7.06,7.06h0c3.9,0,7.06-3.16,7.06-7.06V200.05Z"/><path class="h" d="M197.21,485.89c-3.42,1.97-7.79,.79-9.76-2.63h0c-1.97-3.42-.79-7.79,2.63-9.76l114.75-66.06c3.42-1.97,7.79-.79,9.76,2.63h0c1.97,3.42,.79,7.79-2.63,9.76l-114.75,66.06Z"/><rect class="f" x="230.18" width="155.23" height="72.27" rx="17.41" ry="17.41"/></g></g></g></svg>