<?xml version="1.0" encoding="UTF-8"?><svg xmlns="http://www.w3.org/2000/svg" viewBox="0 0 775.41 534.93"><defs><style>.d{fill:#373937;}.e{fill:#cecdce;}.f{fill:#9a9999;}.g{fill:#f1f1f1;}.h{fill:#5a5d5b;}.i{fill:#83bd49;}</style></defs><g id="a"/><g id="b"><g id="c"><g><rect class="d" x="76.98" width="612.27" height="408.69" rx="17.08" ry="17.08"/><path class="h" d="M680.41,378.48c0,8.83-7.42,15.99-16.59,15.99H102.4c-9.17,0-16.59-7.16-16.59-15.99V27.79c0-8.84,7.42-16,16.59-16H663.83c9.16,0,16.59,7.16,16.59,16V378.48Z"/><rect class="g" x="104.16" y="26.31" width="557.9" height="356.06"/><polygon class="f" points="85.81 408.69 0 510.76 775.41 510.76 680.41 408.69 85.81 408.69"/><polygon class="e" points="104.45 418.3 62.93 471.33 713.99 471.33 668.17 418.3 104.45 418.3"/><polygon class="e" points="311.21 482.75 299.91 497.17 477.01 497.17 464.54 482.75 311.21 482.75"/><path class="d" d="M765.8,534.93H9.62c-5.31,0-9.62-4.31-9.62-9.62v-14.55H775.41v14.55c0,5.31-4.31,9.62-9.62,9.62Z"/></g><rect class="i" x="132.67" y="77.24" width="172.94" height="18.76" rx="9.38" ry="9.38"/><rect class="i" x="132.67" y="110.06" width="227.14" height="18.76" rx="9.38" ry="9.38"/><rect class="i" x="132.67" y="142.89" width="152.62" height="18.76" rx="9.38" ry="9.38"/><ellipse class="i" cx="625.05" cy="86.62" rx="9.81" ry="9.38"/><ellipse class="i" cx="595.33" cy="86.62" rx="9.81" ry="9.38"/><ellipse class="i" cx="564.6" cy="86.62" rx="9.81" ry="9.38"/><path class="i" d="M285.69,247.55l-.26-.12c-4.11-1.89-8.11-1.86-12.22,.07l-.19,.09-121.26,80.44c-2.19,1.33-3.6,3.2-4.06,5.42-.41,1.94-.08,4.06,.94,6.13l.23,.46,.38,.34c2.5,2.26,5.33,3.6,7.56,3.6,1.75,0,3.77-.93,6.22-2.14l.16-.08,114.9-76.23,51.13,35.46c2.75,2.51,7.44,2.34,11.28-.44l73.82-60.98,35.11,35.03c1.07,1.32,2.73,2.18,4.69,2.45,2.64,.36,5.45-.38,7.7-2.02l148.3-120.75c1.32-1.01,2.14-2.64,2.39-4.72,.32-2.69-.4-5.59-1.89-7.57-1.35-1.8-3.91-3.03-6.67-3.21-2.67-.19-5.13,.64-6.8,2.26l-.4,.36-141.12,114.53-35.09-35.01c-1.07-1.31-2.71-2.17-4.65-2.45-2.62-.37-5.4,.34-7.65,1.96l-74.83,62.05-47.72-34.92Z"/></g></g></svg>