<?xml version="1.0" encoding="UTF-8"?><svg xmlns="http://www.w3.org/2000/svg" xmlns:xlink="http://www.w3.org/1999/xlink" viewBox="0 0 647.01 648.9"><defs><style>.e{isolation:isolate;}.f{fill:#fff;opacity:.33;}.f,.g,.h{mix-blend-mode:soft-light;}.i{opacity:.48;}.j{fill:#84bd49;}.k{fill:#373937;}.l{fill:#cbdfa1;}.m{clip-path:url(#d);}.g{opacity:.09;}.g,.h{stroke:#010101;stroke-miterlimit:10;stroke-width:1.89px;}.g,.h,.n{fill:none;}.o{fill:#cecdce;}.p{fill:#9a9999;}.q{fill:#f1f1f1;}.r{fill:#5a5d5b;}</style><clipPath id="d"><path class="n" d="M641.69,120c13.9-90.1-3.82-111.3-3.82-111.3,0,0-21.39-17.5-111.58-2.87-95.26,15.45-155.72,74.02-196.89,114.73-53.27,52.68-141.12,173.89-182.64,277.07l52.99,51.89,52.45,52.44c103.06-42.3,223.8-130.97,276.15-184.56,40.46-41.42,98.65-102.24,113.33-197.4Z"/></clipPath></defs><g class="e"><g id="a"/><g id="b"><g id="c"><g><path class="o" d="M199.23,444.01s-131.93-49.49-160.17,78.88l27.87-5.56s-32.66,37.56-44.24,108.8c70.84-13.79,107.36-47.61,107.36-47.61l-4.69,28.03c127.43-32.23,73.85-162.55,73.85-162.55Z"/><path class="l" d="M196.06,446.39s-82.29-30.87-99.9,49.2l17.39-3.47s-20.37,23.43-27.6,67.86c44.19-8.6,66.97-29.7,66.97-29.7l-2.92,17.49c79.49-20.1,46.07-101.39,46.07-101.39Z"/><polygon class="p" points="234.95 503.44 144.93 414.37 169.73 389.41 259.76 478.48 234.95 503.44"/><path class="j" d="M213.25,271.18s-83.61-6.18-117.92,28.32C58.31,336.73,27.66,382.29,2.9,447.4c-13.21,34.74,21.67-1.17,44.81-22.32,40.51-37.03,60.48-36.28,99.05-27.44,0,0,20.79-42.55,66.49-126.45Z"/><path class="j" d="M378.38,434.56s6.89,83.37-27.39,117.89c-37,37.25-82.4,68.22-147.44,93.46-34.71,13.47,.99-21.63,21.99-44.9,36.77-40.73,35.85-60.65,26.67-99.05,0,0,42.47-21.1,126.17-67.4Z"/><path class="o" d="M641.69,120c13.9-90.1-3.82-111.3-3.82-111.3,0,0-21.39-17.5-111.58-2.87-95.26,15.45-155.72,74.02-196.89,114.73-53.27,52.68-141.12,173.89-182.64,277.07l52.99,51.89,52.45,52.44c103.06-42.3,223.8-130.97,276.15-184.56,40.46-41.42,98.65-102.24,113.33-197.4Z"/><line class="g" x1="154.26" y1="404.98" x2="244.5" y2="494.25"/><path class="k" d="M146.76,397.64l52.99,51.89,52.45,52.44c20.83-8.55,42.38-19.01,63.95-30.68l-139.18-137.7c-11.51,21.61-21.82,43.2-30.21,64.06Z"/><line class="h" x1="448.01" y1="30.47" x2="617.65" y2="198.31"/><path class="j" d="M637.87,8.7s-21.39-17.5-111.58-2.87c-29.22,4.74-55.16,13.55-78.28,24.64l169.63,167.83c10.93-23.16,19.53-49.11,24.04-78.31,13.9-90.1-3.82-111.3-3.82-111.3Z"/><g class="m"><rect class="j" x="514.39" y="-12.84" width="12.31" height="285.87" transform="translate(63.35 410.93) rotate(-45.59)"/><rect class="j" x="502.47" y="4.88" width="8.21" height="285.87" transform="translate(46.5 406.27) rotate(-45.59)"/></g><line class="g" x1="176.95" y1="333.57" x2="316.15" y2="471.28"/><path class="j" d="M287.38,361.36s-7.77-12.03-82.88,63.54c-75.11,75.57-139.16,147.96-133.19,153.86,5.97,5.9,77.98-58.61,153.08-134.18,75.11-75.57,62.98-83.22,62.98-83.22Z"/><path class="f" d="M287.38,361.36s-7.77-12.03-82.88,63.54c-75.11,75.57-139.16,147.96-133.19,153.86,0,0,21-30.17,77.36-90.2,56.36-60.03,121-125.63,138.7-127.2Z"/><g><path class="k" d="M465.92,319.59c36.35-36.65,36.1-95.83-.55-132.18-36.65-36.35-95.83-36.1-132.18,.55-36.35,36.65-36.1,95.83,.55,132.18,36.65,36.35,95.83,36.1,132.18-.55Z"/><path class="r" d="M464.04,313.24c36.15-36.45,35.9-95.29-.55-131.44-36.45-36.15-95.29-35.9-131.44,.55-36.15,36.45-35.9,95.29,.55,131.44,36.45,36.14,95.29,35.9,131.44-.55Z"/><path class="q" d="M347.01,298.74c-28.09-27.86-28.28-73.37-.42-101.46,27.86-28.09,73.37-28.28,101.46-.42,28.09,27.86,28.28,73.37,.42,101.46-27.86,28.09-73.37,28.28-101.46,.42Z"/><g><g><path class="k" d="M339.44,196.1c.45-2.12-.91-4.2-3.03-4.64-2.12-.45-4.2,.91-4.64,3.03-.45,2.12,.91,4.2,3.03,4.64,2.12,.45,4.2-.91,4.64-3.03Z"/><path class="k" d="M325.81,217.56c.45-2.12-.91-4.2-3.03-4.64-2.12-.45-4.2,.91-4.64,3.03-.45,2.12,.91,4.2,3.03,4.64,2.12,.45,4.2-.91,4.64-3.03Z"/><path class="k" d="M354.88,181.27c.45-2.12-.91-4.2-3.03-4.64-2.12-.45-4.2,.91-4.64,3.03-.45,2.12,.91,4.2,3.03,4.64,2.12,.45,4.2-.91,4.64-3.03Z"/><path class="k" d="M322.3,264.07c-1.39-1.66-3.86-1.89-5.52-.5s-1.89,3.86-.5,5.52c1.39,1.66,3.86,1.89,5.52,.5,1.66-1.39,1.89-3.86,.5-5.52Z"/><path class="k" d="M330.68,288.07c-1.39-1.66-3.86-1.89-5.52-.5-1.66,1.39-1.89,3.86-.5,5.52,1.39,1.66,3.86,1.89,5.52,.5s1.89-3.86,.5-5.52Z"/><path class="k" d="M320.7,238.95c-1.39-1.66-3.86-1.89-5.52-.5s-1.89,3.86-.5,5.52,3.86,1.89,5.52,.5c1.66-1.39,1.89-3.86,.5-5.52Z"/><path class="k" d="M363.47,319.88c-2.16,.07-3.86,1.88-3.79,4.04s1.88,3.86,4.04,3.79c2.16-.07,3.86-1.88,3.79-4.04-.07-2.16-1.88-3.86-4.04-3.79Z"/><path class="k" d="M387.55,328.03c-2.16,.07-3.86,1.88-3.79,4.04s1.88,3.86,4.04,3.79,3.86-1.88,3.79-4.04c-.07-2.16-1.88-3.86-4.04-3.79Z"/><path class="k" d="M342.68,305.68c-2.16,.07-3.86,1.88-3.79,4.04,.07,2.16,1.88,3.86,4.04,3.79s3.86-1.88,3.79-4.04c-.07-2.16-1.88-3.86-4.04-3.79Z"/><path class="k" d="M433.28,321.24c-1.29,1.74-.92,4.19,.82,5.48,1.74,1.29,4.19,.92,5.48-.82,1.29-1.74,.92-4.2-.82-5.48-1.74-1.29-4.2-.92-5.48,.82Z"/><path class="k" d="M453.39,307.6c-1.29,1.74-.92,4.19,.82,5.48,1.74,1.29,4.2,.92,5.48-.82,1.29-1.74,.92-4.19-.82-5.48s-4.19-.92-5.48,.82Z"/><path class="k" d="M409.54,327.92c-1.29,1.74-.92,4.2,.82,5.48,1.74,1.29,4.19,.92,5.48-.82,1.29-1.74,.92-4.19-.82-5.48-1.74-1.29-4.2-.92-5.48,.82Z"/><path class="k" d="M474.25,268.38c.52,2.1,2.64,3.38,4.75,2.87,2.1-.52,3.38-2.64,2.87-4.75-.52-2.1-2.64-3.38-4.75-2.87-2.1,.52-3.38,2.64-2.87,4.75Z"/><path class="k" d="M476.89,245.1c.52,2.1,2.64,3.38,4.75,2.87,2.1-.52,3.38-2.64,2.87-4.75s-2.64-3.38-4.75-2.87-3.38,2.64-2.87,4.75Z"/><path class="k" d="M466.28,291.66c.52,2.1,2.64,3.38,4.75,2.87,2.1-.52,3.38-2.64,2.87-4.75-.52-2.1-2.64-3.38-4.75-2.87-2.1,.52-3.38,2.64-2.87,4.75Z"/><path class="k" d="M463.39,202.16c1.98,.88,4.29,0,5.18-1.98s0-4.29-1.98-5.18c-1.98-.88-4.29,0-5.18,1.98-.88,1.98,0,4.29,1.98,5.18Z"/><path class="k" d="M445.59,184.47c1.98,.88,4.29,0,5.18-1.98s0-4.29-1.98-5.18c-1.98-.88-4.29,0-5.18,1.98-.88,1.98,0,4.29,1.98,5.18Z"/><path class="k" d="M473.8,224.01c1.98,.88,4.29,0,5.18-1.98,.88-1.98,0-4.29-1.98-5.18-1.98-.88-4.29,0-5.18,1.98-.88,1.98,0,4.29,1.98,5.18Z"/><path class="k" d="M399.65,169.91c1.92-1,2.66-3.37,1.66-5.29-1-1.92-3.37-2.66-5.29-1.66-1.92,1-2.66,3.37-1.66,5.29,1,1.92,3.37,2.66,5.29,1.66Z"/><path class="k" d="M375.34,174.17c1.92-1,2.66-3.37,1.66-5.29-1-1.92-3.37-2.66-5.29-1.66-1.92,1-2.66,3.37-1.66,5.29,1,1.92,3.37,2.66,5.29,1.66Z"/><path class="k" d="M425.02,173.5c1.92-1,2.66-3.37,1.66-5.29-1-1.92-3.37-2.66-5.29-1.66-1.92,1-2.66,3.37-1.66,5.29,1,1.92,3.37,2.66,5.29,1.66Z"/></g><g><path class="k" d="M338.61,195.27c.45-2.12-.91-4.2-3.03-4.64s-4.2,.91-4.64,3.03c-.45,2.12,.91,4.2,3.03,4.64,2.12,.45,4.2-.91,4.64-3.03Z"/><path class="k" d="M324.99,216.74c.45-2.12-.91-4.2-3.03-4.64-2.12-.45-4.2,.91-4.64,3.03-.45,2.12,.91,4.2,3.03,4.64,2.12,.45,4.2-.91,4.64-3.03Z"/><path class="k" d="M354.06,180.45c.45-2.12-.91-4.2-3.03-4.64-2.12-.45-4.2,.91-4.64,3.03-.45,2.12,.91,4.2,3.03,4.64,2.12,.45,4.2-.91,4.64-3.03Z"/><path class="k" d="M321.47,263.25c-1.39-1.66-3.86-1.89-5.52-.5-1.66,1.39-1.89,3.86-.5,5.52,1.39,1.66,3.86,1.89,5.52,.5,1.66-1.39,1.89-3.86,.5-5.52Z"/><path class="k" d="M329.85,287.25c-1.39-1.66-3.86-1.89-5.52-.5-1.66,1.39-1.89,3.86-.5,5.52,1.39,1.66,3.86,1.89,5.52,.5,1.66-1.39,1.89-3.86,.5-5.52Z"/><path class="k" d="M319.88,238.12c-1.39-1.66-3.86-1.89-5.52-.5-1.66,1.39-1.89,3.86-.5,5.52,1.39,1.66,3.86,1.89,5.52,.5,1.66-1.39,1.89-3.86,.5-5.52Z"/><path class="k" d="M362.64,319.05c-2.16,.07-3.86,1.88-3.79,4.04,.07,2.16,1.88,3.86,4.04,3.79,2.16-.07,3.86-1.88,3.79-4.04s-1.88-3.86-4.04-3.79Z"/><path class="k" d="M386.72,327.2c-2.16,.07-3.86,1.88-3.79,4.04,.07,2.16,1.88,3.86,4.04,3.79,2.16-.07,3.86-1.88,3.79-4.04s-1.88-3.86-4.04-3.79Z"/><path class="k" d="M341.85,304.86c-2.16,.07-3.86,1.88-3.79,4.04s1.88,3.86,4.04,3.79,3.86-1.88,3.79-4.04c-.07-2.16-1.88-3.86-4.04-3.79Z"/><path class="k" d="M432.46,320.42c-1.29,1.74-.92,4.19,.82,5.48,1.74,1.29,4.19,.92,5.48-.82,1.29-1.74,.92-4.2-.82-5.48-1.74-1.29-4.2-.92-5.48,.82Z"/><path class="k" d="M452.57,306.77c-1.29,1.74-.92,4.19,.82,5.48,1.74,1.29,4.2,.92,5.48-.82,1.29-1.74,.92-4.19-.82-5.48-1.74-1.29-4.19-.92-5.48,.82Z"/><path class="k" d="M408.71,327.09c-1.29,1.74-.92,4.2,.82,5.48,1.74,1.29,4.19,.92,5.48-.82,1.29-1.74,.92-4.19-.82-5.48-1.74-1.29-4.2-.92-5.48,.82Z"/><path class="k" d="M473.43,267.56c.52,2.1,2.64,3.38,4.75,2.87,2.1-.52,3.38-2.64,2.87-4.75-.52-2.1-2.64-3.38-4.75-2.87-2.1,.52-3.38,2.64-2.87,4.75Z"/><path class="k" d="M476.07,244.27c.52,2.1,2.64,3.38,4.75,2.87,2.1-.52,3.38-2.64,2.87-4.75-.52-2.1-2.64-3.38-4.75-2.87s-3.38,2.64-2.87,4.75Z"/><path class="k" d="M465.45,290.84c.52,2.1,2.64,3.38,4.75,2.87,2.1-.52,3.38-2.64,2.87-4.75-.52-2.1-2.64-3.38-4.75-2.87-2.1,.52-3.38,2.64-2.87,4.75Z"/><path class="k" d="M462.56,201.34c1.98,.88,4.29,0,5.18-1.98,.88-1.98,0-4.29-1.98-5.18-1.98-.88-4.29,0-5.18,1.98-.88,1.98,0,4.29,1.98,5.18Z"/><path class="k" d="M444.77,183.64c1.98,.88,4.29,0,5.18-1.98,.88-1.98,0-4.29-1.98-5.18-1.98-.88-4.29,0-5.18,1.98-.88,1.98,0,4.29,1.98,5.18Z"/><path class="k" d="M472.97,223.19c1.98,.88,4.29,0,5.18-1.98,.88-1.98,0-4.29-1.98-5.18-1.98-.88-4.29,0-5.18,1.98-.88,1.98,0,4.29,1.98,5.18Z"/><path class="k" d="M398.83,169.09c1.92-1,2.66-3.37,1.66-5.29-1-1.92-3.37-2.66-5.29-1.66-1.92,1-2.66,3.37-1.66,5.29,1,1.92,3.37,2.66,5.29,1.66Z"/><path class="k" d="M374.52,173.34c1.92-1,2.66-3.37,1.66-5.29-1-1.92-3.37-2.66-5.29-1.66-1.92,1-2.66,3.37-1.66,5.29,1,1.92,3.37,2.66,5.29,1.66Z"/><path class="k" d="M424.2,172.68c1.92-1,2.66-3.37,1.66-5.29-1-1.92-3.37-2.66-5.29-1.66-1.92,1-2.66,3.37-1.66,5.29,1,1.92,3.37,2.66,5.29,1.66Z"/></g><g><rect class="k" x="331.12" y="194.08" width="7.32" height=".78" transform="translate(-39.46 293.68) rotate(-45)"/><rect class="k" x="317.49" y="215.54" width="7.32" height=".78" transform="translate(-58.62 290.33) rotate(-45)"/><rect class="k" x="346.56" y="179.25" width="7.32" height=".78" transform="translate(-24.45 300.26) rotate(-45)"/><rect class="k" x="314.8" y="265.36" width="7.32" height=".78" transform="translate(-94.64 303.02) rotate(-45)"/><rect class="k" x="323.18" y="289.37" width="7.32" height=".78" transform="translate(-109.16 315.97) rotate(-45)"/><rect class="k" x="313.21" y="240.24" width="7.32" height=".78" transform="translate(-77.34 294.54) rotate(-45)"/><rect class="k" x="359.11" y="322.58" width="7.32" height=".78" transform="translate(-122.12 351.11) rotate(-45)"/><rect class="k" x="383.19" y="330.73" width="7.32" height=".78" transform="translate(-120.83 370.53) rotate(-45)"/><rect class="k" x="338.32" y="308.38" width="7.32" height=".78" transform="translate(-118.17 332.25) rotate(-45)"/><rect class="k" x="431.95" y="322.36" width="7.32" height=".78" transform="translate(-100.63 402.55) rotate(-45)"/><rect class="k" x="452.06" y="308.71" width="7.32" height=".78" transform="translate(-85.09 412.77) rotate(-45)"/><rect class="k" x="408.2" y="329.03" width="7.32" height=".78" transform="translate(-112.31 387.72) rotate(-45)"/><rect class="k" x="473.58" y="266.22" width="7.32" height=".78" transform="translate(-48.75 415.55) rotate(-45)"/><rect class="k" x="476.22" y="242.94" width="7.32" height=".78" transform="translate(-31.51 410.59) rotate(-45)"/><rect class="k" x="465.6" y="289.51" width="7.32" height=".78" transform="translate(-67.55 416.73) rotate(-45)"/><rect class="k" x="460.51" y="197.37" width="7.32" height=".78" transform="translate(-3.89 386.14) rotate(-45)"/><rect class="k" x="442.71" y="179.67" width="7.32" height=".78" transform="translate(3.41 368.37) rotate(-45)"/><rect class="k" x="470.91" y="219.22" width="7.32" height=".78" transform="translate(-16.29 399.9) rotate(-45)"/><rect class="k" x="393.35" y="165.22" width="7.32" height=".78" transform="translate(-.83 329.24) rotate(-45)"/><rect class="k" x="369.04" y="169.48" width="7.32" height=".78" transform="translate(-10.95 313.29) rotate(-45)"/><rect class="k" x="418.73" y="168.81" width="7.32" height=".78" transform="translate(4.07 348.23) rotate(-45)"/></g></g></g><polygon class="f" points="157.73 408.31 148.25 417.62 144.93 414.37 154.26 404.98 157.73 408.31"/><g class="i"/><path class="f" d="M218.89,612.2c22.61-22.15,31.09-43.54,32.57-47.63-.34,.86-1.1,2.55-2.76,5.33-5.04,9.26-12.51,19.31-23.17,31.11-13.57,15.04-33.26,35-36.14,43.62-.54,1.83-.27,3.01,.56,3.75,0,0,0,.01,.01,.01,.02-.05,3.84-11.63,28.92-36.2Z"/></g></g></g></g></svg>