<?xml version="1.0" encoding="UTF-8"?><svg xmlns="http://www.w3.org/2000/svg" viewBox="0 0 551.14 695.76"><defs><style>.d{fill:#fff;}.e{fill:#84bd49;}.f{fill:#373937;}.g{fill:#cecdce;}.h{fill:#9a9999;}.i{fill:#f1f1f1;}</style></defs><g id="a"/><g id="b"><g id="c"><g><g><polygon class="h" points="24.49 189.17 9.5 251.06 18.64 241.51 51.67 273.12 104.79 217.59 71.75 185.99 78.22 179.22 24.49 189.17"/><g><polygon class="f" points="72.91 146.99 113.15 211.83 187.1 165.96 146.87 101.1 72.91 146.99"/><rect class="f" x="76.05" y="89.83" width="63" height="55.26" transform="translate(-45.76 74.34) rotate(-31.81)"/></g><polygon class="f" points="516.81 185.64 541.65 244.26 531.08 236.31 503.61 272.87 442.19 226.7 469.65 190.16 462.16 184.53 516.81 185.64"/><polygon class="h" points="467.9 103.91 471.53 182.01 460.96 174.06 433.49 210.62 372.07 164.45 399.53 127.9 392.05 122.28 467.9 103.91"/></g><g><polygon class="g" points="237.74 83.61 182.6 115.47 195.83 115.49 195.76 161.21 272.6 161.32 272.66 115.6 282.03 115.61 237.74 83.61"/><polygon class="f" points="368.54 30.47 293.2 30.36 293.04 135.44 293.08 135.44 293.05 161.21 368.39 161.32 368.49 95.24 368.44 95.24 368.54 30.47"/><rect class="f" x="325.84" width="35.78" height="57.54"/></g><g><path class="i" d="M551.14,420.18c0,152.19-123.38,275.58-275.57,275.58S0,572.37,0,420.18,123.38,144.61,275.57,144.61s275.57,123.37,275.57,275.57Z"/><g><path class="e" d="M544.92,361.98c-15.23-70.84-57.66-131.56-115.85-170.67-.11,.05-28.6,12.56-34.92,43.42-6.31,30.9,5.12,44.36-6.99,59.15-12.1,14.8-11.42,36.99,11.44,51.12,22.87,14.12,45.06-3.37,51.12,28.92,6.06,32.29,14.67,57.75,36.8,62.13,39.63,7.84,54.39-47.12,58.41-74.07Z"/><path class="d" d="M170.94,165.23c-.06,.66-1.8,21.41,21.58,21.91,14.89,.32,28.25-10.03,49.82-10.03s20.13,47.61,51.75,31.22c36.52-18.93,41.6,1.64,82.99-11.6,16.76-5.36,5.79-30.45,5.79-30.45-25.42-10.54-53.1-17.26-80.5-20.36-8.82-.84-17.74-1.31-26.78-1.31-37.06,0-72.37,7.36-104.64,20.62Z"/><path class="e" d="M108.53,201.05c-2.19,1.68-4.36,3.37-6.5,5.11-1.06,.86-2.12,1.72-3.17,2.6-2.22,1.86-4.4,3.76-6.56,5.68-.94,.83-1.9,1.67-2.83,2.52-2.24,2.05-4.43,4.18-6.61,6.31-2.73,2.68-5.41,5.42-8.03,8.21-.59,.63-1.21,1.24-1.79,1.88-26.33,28.69-46.38,62.98-59.53,101.57-.24,.73-.51,1.45-.74,2.18,3.7,14.6,8.58,26.7,15.72,36.63,7.17,9.95,27.28,24.12,30.94,35.61,3.67,11.47-13.67,41.67-2.17,67.47,11.51,25.81,27.85,12.88,40.3,52.61,12.43,39.72,52.98,125.82,58.73,104.12,5.76-21.7-17.13-65.47-8.74-71.3,24.21-16.81,17.11-16.61,20.84-36.32,3.75-19.72,16.93-30.42,23.32-50.85,6.38-20.44-26.69-18.02-40.38-36.15-13.68-18.13-50.34-11.47-71.58-18.77-21.24-7.29-13.13-45.07-26.4-55.38-13.28-10.29-13.81-45.87-6.54-35.05,7.25,10.84,28.22,19.84,31.87,1.85,1.68-8.27,7.71-22,16.84-34.89,4.91,2.64,11.14,3.16,18.41-7.5,10.09-14.8,13.45-7.41,31.16-11.44,9.21-2.1,8.03-8.53,3.48-14.83,22.8-5.47,24-14.9,19.96-31.01-2.37-9.46-39.8-33.76-54.77-34.74-.57,.42-1.14,.8-1.71,1.21-1.18,.87-2.34,1.77-3.5,2.66Z"/><path class="e" d="M234.89,370.52c19.51,38.34-24.22,41.48,12.78,73.2,36.99,31.72,62.21,51.9,91.47,29.7,29.25-22.19,39.38-58.22,18.68-70.98-20.71-12.75-2.27-26.88-10.98-51.09-4.84-13.42-55.14-46.61-86.4-41.37-25.14,4.22-34.26,43.45-25.55,60.53Z"/></g></g></g></g></g></svg>